<?xml version="1.0" encoding="utf-8"?>
<!-- Generator: Adobe Illustrator 27.5.0, SVG Export Plug-In . SVG Version: 6.00 Build 0)  -->
<svg version="1.1" xmlns="http://www.w3.org/2000/svg" xmlns:xlink="http://www.w3.org/1999/xlink" x="0px" y="0px"
	 viewBox="0 0 270 125" style="enable-background:new 0 0 270 125;" xml:space="preserve">
<g id="Base">
	<g id="XMLID_13356_">
		<rect id="XMLID_51105_" style="fill:#FFFFFF;" width="270" height="125"/>
		<g id="XMLID_51110_">
			<rect id="XMLID_51108_" style="opacity:0.43;fill:#FFFFFF;" width="270" height="62.403"/>
			<rect id="XMLID_51109_" y="62.597" style="opacity:0.43;fill:#FFFFFF;" width="270" height="62.403"/>
		</g>
	</g>
</g>
<g id="Background">
	<defs>
		<rect id="XMLID_4_" width="270" height="125"/>
	</defs>
	<clipPath id="XMLID_00000107562235744463421450000001068950733525301396_">
		<use xlink:href="#XMLID_4_"  style="overflow:visible;"/>
	</clipPath>
	<g id="XMLID_3_" style="opacity:0.14;clip-path:url(#XMLID_00000107562235744463421450000001068950733525301396_);">
		<path id="XMLID_47_" style="opacity:0.57;" d="M256.838,70.722c-1.586-0.048-3.163,0.013-4.729,0.186l-3.336-6.195l-4.972,1.205
			l-0.116,7.029c-1.337,0.507-2.64,1.107-3.905,1.785l-5.425-4.481l-4.153,2.981l2.544,6.549c-1.141,1.066-2.217,2.223-3.216,3.468
			l-6.812-2.073l-2.664,4.36l4.967,5.092c-0.589,1.321-1.086,2.664-1.495,4.024l-7.007,0.655l-0.82,5.039l6.441,2.84
			c-0.047,1.577,0.015,3.153,0.19,4.714l-6.208,3.327l1.208,4.958l7.043,0.123c0.516,1.33,1.112,2.633,1.794,3.897l-4.489,5.408
			l2.993,4.142l6.562-2.534c1.071,1.141,2.231,2.214,3.479,3.21l-2.077,6.797l4.372,2.656l5.1-4.955
			c1.326,0.592,2.674,1.089,4.037,1.494l0.658,6.99l5.053,0.821l2.844-6.423c1.581,0.049,3.161-0.017,4.726-0.186l3.336,6.194
			l4.972-1.202l0.117-7.029c1.336-0.513,2.638-1.11,3.906-1.789l5.421,4.485l4.155-2.985l-2.545-6.546
			c1.14-1.067,2.217-2.226,3.214-3.47l6.816,2.072l2.66-4.36l-4.968-5.091c0.59-1.322,1.09-2.665,1.495-4.022l7.009-0.655l0.82-5.04
			l-6.442-2.842c0.05-1.577-0.013-3.154-0.186-4.715l6.206-3.321l-1.208-4.964l-7.044-0.122c-0.514-1.331-1.111-2.633-1.793-3.893
			l4.49-5.409l-2.991-4.145l-6.564,2.534c-1.07-1.139-2.23-2.21-3.477-3.209l2.072-6.795l-4.37-2.66l-5.102,4.956
			c-1.326-0.592-2.673-1.086-4.035-1.495l-0.66-6.99l-5.052-0.821L256.838,70.722 M243.512,103.14
			c0.62-6.75,6.61-11.721,13.379-11.099c6.768,0.622,11.752,6.601,11.132,13.351c-0.62,6.752-6.611,11.723-13.378,11.102
			C247.876,115.871,242.892,109.892,243.512,103.14"/>
		<path id="XMLID_34_" style="opacity:0.57;" d="M129.445,31.146l-3.471-6.12l-4.944,1.315l0.039,7.03
			c-1.326,0.537-2.615,1.165-3.865,1.87l-5.522-4.361l-4.086,3.072l2.688,6.491c-1.117,1.091-2.167,2.271-3.139,3.538l-6.856-1.923
			l-2.568,4.418l5.078,4.982c-0.56,1.333-1.027,2.687-1.406,4.056l-6.991,0.809l-0.709,5.056l6.502,2.698
			c-0.013,1.578,0.084,3.152,0.294,4.708l-6.133,3.463l1.317,4.93l7.044-0.033c0.545,1.319,1.169,2.608,1.879,3.856l-4.369,5.506
			l3.083,4.075l6.505-2.678c1.096,1.117,2.279,2.164,3.549,3.133l-1.926,6.841l4.43,2.559l4.99-5.066
			c1.339,0.563,2.697,1.03,4.069,1.405l0.812,6.974l5.07,0.709l2.702-6.484c1.582,0.014,3.161-0.086,4.721-0.29l3.472,6.119
			l4.944-1.311l-0.038-7.029c1.325-0.542,2.613-1.168,3.866-1.875l5.519,4.365l4.088-3.076l-2.688-6.489
			c1.116-1.092,2.168-2.274,3.137-3.54l6.86,1.921l2.564-4.417l-5.079-4.98c0.561-1.335,1.031-2.688,1.406-4.054l6.993-0.809
			l0.709-5.056l-6.503-2.7c0.015-1.578-0.083-3.153-0.29-4.71l6.132-3.457l-1.317-4.937l-7.045,0.034
			c-0.544-1.32-1.168-2.608-1.878-3.853l4.369-5.506l-3.082-4.078l-6.507,2.678c-1.095-1.115-2.278-2.161-3.546-3.132l1.922-6.838
			l-4.427-2.563l-4.991,5.067c-1.339-0.562-2.696-1.027-4.067-1.406l-0.814-6.974l-5.069-0.71l-2.699,6.485
			C132.583,30.843,131.007,30.939,129.445,31.146z M147.358,51.722l-5.376,4.472c-1.595-1.583-3.654-2.712-5.982-3.152l0.639-6.959
			C140.881,46.727,144.6,48.783,147.358,51.722z M152.374,65.001l-6.96-0.639c-0.009-2.369-0.743-4.6-2.009-6.457l5.376-4.472
			C151.169,56.68,152.513,60.712,152.374,65.001z M146.531,77.936l-4.471-5.376c1.582-1.595,2.711-3.655,3.151-5.982l6.96,0.639
			C151.526,71.459,149.47,75.179,146.531,77.936z M133.252,82.952l0.639-6.959c2.369-0.009,4.6-0.744,6.457-2.01l4.471,5.376
			C141.573,81.747,137.541,83.091,133.252,82.952z M120.317,77.109l5.376-4.471c1.595,1.582,3.654,2.712,5.982,3.152l-0.639,6.959
			C126.794,82.104,123.074,80.048,120.317,77.109z M122.26,64.469c0.009,2.369,0.744,4.6,2.01,6.457l-5.376,4.471
			c-2.388-3.247-3.732-7.278-3.592-11.567L122.26,64.469z M124.524,63.56c0.472-5.135,5.033-8.929,10.169-8.458
			c5.135,0.472,8.929,5.033,8.458,10.169c-0.472,5.135-5.033,8.929-10.169,8.458C127.847,73.257,124.052,68.695,124.524,63.56z
			 M121.144,50.895l4.472,5.376c-1.583,1.595-2.712,3.654-3.152,5.983l-6.959-0.639C116.149,57.372,118.205,53.652,121.144,50.895z
			 M134.423,45.879l-0.639,6.959c-2.369,0.009-4.6,0.744-6.457,2.01l-4.472-5.376C126.102,47.084,130.134,45.74,134.423,45.879z"/>
		<path id="XMLID_33_" style="opacity:0.57;" d="M193.422,73.116l1.27-3.051l2.385,0.334l0.383,3.281
			c0.645,0.178,1.283,0.397,1.914,0.661l2.349-2.384l2.083,1.206l-0.904,3.218c0.597,0.457,1.153,0.949,1.669,1.474l3.062-1.26
			l1.45,1.919l-2.056,2.591c0.334,0.586,0.628,1.192,0.884,1.813l3.315-0.016l0.62,2.323l-2.885,1.627
			c0.098,0.733,0.144,1.474,0.137,2.216l3.06,1.27l-0.333,2.379l-3.29,0.381c-0.177,0.643-0.398,1.28-0.662,1.908l2.39,2.343
			l-1.206,2.078l-3.228-0.904c-0.456,0.595-0.951,1.151-1.476,1.665l1.265,3.053l-1.923,1.447l-2.597-2.054
			c-0.59,0.332-1.196,0.627-1.819,0.882l0.018,3.308l-2.326,0.617l-1.633-2.879c-0.734,0.096-1.477,0.143-2.221,0.137l-1.272,3.051
			l-2.385-0.334l-0.382-3.282c-0.645-0.176-1.285-0.396-1.915-0.661l-2.348,2.384l-2.084-1.204l0.906-3.219
			c-0.598-0.456-1.154-0.949-1.67-1.474l-3.061,1.26l-1.451-1.917l2.056-2.591c-0.334-0.587-0.628-1.194-0.884-1.814l-3.315,0.015
			l-0.62-2.32l2.886-1.629c-0.099-0.732-0.144-1.473-0.138-2.215l-3.059-1.27l0.333-2.379l3.29-0.381
			c0.178-0.644,0.398-1.281,0.662-1.909l-2.39-2.344l1.208-2.079l3.226,0.905c0.457-0.596,0.951-1.151,1.477-1.664l-1.265-3.054
			l1.923-1.445l2.598,2.052c0.588-0.332,1.195-0.628,1.819-0.88l-0.018-3.308l2.327-0.619l1.633,2.88
			C191.934,73.155,192.675,73.11,193.422,73.116z"/>
		<path id="XMLID_30_" style="opacity:0.57;" d="M-18.889,75.273l-6.834,1.624l-0.113,5.117l6.753,1.923
			c0.153,1.414,0.395,2.828,0.735,4.24l-5.803,4.113l1.819,4.782l7.058-0.8c0.755,1.408,1.597,2.743,2.522,4.003l-3.687,5.993
			l3.531,3.696l6.136-3.429c1.115,0.9,2.286,1.724,3.502,2.472l-1.164,6.949l4.661,2.092l4.396-5.498
			c1.503,0.455,3.042,0.804,4.602,1.042l1.621,6.852l5.104,0.112l1.92-6.772c1.409-0.152,2.82-0.398,4.227-0.738l4.101,5.812
			l4.771-1.822l-0.796-7.079c1.405-0.754,2.74-1.602,3.997-2.528l5.973,3.695l3.692-3.541l-3.423-6.148
			c0.899-1.123,1.723-2.294,2.471-3.515l6.932,1.165l2.088-4.67l-5.483-4.408c0.452-1.508,0.805-3.05,1.044-4.613l6.833-1.627
			l0.113-5.118l-6.753-1.921c-0.15-1.414-0.393-2.83-0.734-4.241l5.801-4.113l-1.815-4.783l-7.061,0.804
			c-0.752-1.409-1.596-2.745-2.523-4.006l3.687-5.991L41.489,50.7l-6.136,3.429c-1.118-0.901-2.291-1.724-3.505-2.473l1.163-6.948
			l-4.655-2.091l-4.402,5.498c-1.503-0.457-3.041-0.805-4.6-1.046l-1.62-6.85l-5.104-0.112l-1.92,6.771
			c-1.412,0.154-2.823,0.398-4.229,0.737l-4.102-5.812l-4.773,1.825l0.798,7.075c-1.406,0.755-2.74,1.603-3.995,2.53l-5.976-3.694
			l-3.688,3.54l3.418,6.15c-0.897,1.12-1.724,2.292-2.466,3.514l-6.932-1.166l-2.091,4.669l5.484,4.409
			C-18.299,72.165-18.647,73.705-18.889,75.273 M15.414,68.075c6.752,0.62,11.723,6.61,11.102,13.379
			c-0.622,6.767-6.601,11.752-13.353,11.132c-6.75-0.62-11.721-6.61-11.1-13.378C2.685,72.439,8.665,67.455,15.414,68.075"/>
		<path id="XMLID_28_" style="opacity:0.57;" d="M185.966,22.476l2.345,0.667l-0.039,1.777l-2.373,0.565
			c-0.083,0.543-0.206,1.079-0.363,1.602l1.904,1.531l-0.725,1.622l-2.407-0.405c-0.26,0.424-0.546,0.83-0.858,1.221l1.189,2.135
			l-1.282,1.23l-2.074-1.283c-0.436,0.322-0.9,0.616-1.388,0.878l0.276,2.459l-1.657,0.633l-1.424-2.019
			c-0.489,0.118-0.979,0.203-1.468,0.256l-0.667,2.352l-1.773-0.039l-0.563-2.38c-0.542-0.083-1.076-0.204-1.598-0.362l-1.527,1.909
			l-1.619-0.727l0.404-2.413c-0.422-0.26-0.829-0.546-1.216-0.858l-2.131,1.191l-1.226-1.284l1.281-2.081
			c-0.321-0.438-0.614-0.901-0.876-1.39l-2.451,0.278l-0.632-1.66l2.015-1.428c-0.118-0.49-0.202-0.982-0.255-1.472l-2.345-0.668
			l0.039-1.777l2.373-0.564c0.084-0.545,0.205-1.08,0.363-1.603l-1.904-1.531l0.726-1.622l2.407,0.405
			c0.258-0.424,0.545-0.832,0.857-1.221l-1.187-2.136l1.281-1.229l2.075,1.283c0.436-0.322,0.899-0.616,1.388-0.879l-0.277-2.457
			l1.657-0.634l1.425,2.019c0.488-0.118,0.978-0.202,1.469-0.256l0.667-2.351l1.773,0.039l0.563,2.379
			c0.542,0.083,1.076,0.205,1.598,0.363l1.529-1.91l1.617,0.726l-0.404,2.413c0.422,0.26,0.829,0.546,1.217,0.859l2.131-1.191
			l1.225,1.284l-1.281,2.08c0.322,0.438,0.615,0.902,0.876,1.391l2.452-0.279l0.63,1.661l-2.015,1.428
			C185.829,21.493,185.914,21.985,185.966,22.476z"/>
		<path id="XMLID_27_" style="opacity:0.57;" d="M156.512,9.324l1.331,0.379l-0.022,1.009l-1.347,0.321
			c-0.047,0.308-0.117,0.612-0.206,0.909l1.081,0.869l-0.411,0.92l-1.366-0.23c-0.147,0.241-0.31,0.471-0.487,0.693l0.675,1.212
			l-0.728,0.698l-1.177-0.728c-0.248,0.182-0.511,0.35-0.788,0.498l0.157,1.395l-0.941,0.359l-0.808-1.146
			c-0.277,0.067-0.556,0.115-0.833,0.145l-0.378,1.335l-1.006-0.022l-0.32-1.351c-0.307-0.047-0.611-0.116-0.907-0.206l-0.867,1.084
			l-0.919-0.412l0.229-1.37c-0.24-0.148-0.47-0.31-0.69-0.487l-1.209,0.676l-0.696-0.729l0.727-1.181
			c-0.182-0.248-0.348-0.511-0.497-0.789l-1.391,0.158l-0.359-0.942l1.144-0.811c-0.067-0.278-0.115-0.557-0.145-0.836l-1.331-0.379
			l0.022-1.009l1.347-0.32c0.048-0.309,0.116-0.613,0.206-0.91l-1.081-0.869l0.412-0.92l1.366,0.23
			c0.146-0.241,0.309-0.472,0.486-0.693l-0.674-1.212l0.727-0.698l1.178,0.728c0.248-0.183,0.511-0.35,0.788-0.499L146.646,2.8
			l0.941-0.36l0.809,1.146c0.277-0.067,0.555-0.115,0.833-0.145l0.378-1.335l1.006,0.022l0.319,1.35
			c0.307,0.047,0.61,0.116,0.907,0.206l0.868-1.084l0.918,0.412l-0.229,1.369c0.239,0.148,0.47,0.31,0.691,0.488l1.209-0.676
			l0.695,0.729l-0.727,1.181c0.183,0.249,0.349,0.512,0.497,0.79l1.392-0.158l0.358,0.943l-1.144,0.811
			C156.434,8.766,156.482,9.045,156.512,9.324z"/>
		<path id="XMLID_15_" style="opacity:0.57;" d="M32.803,15.229l-6.868,1.473l-0.226,5.113l6.709,2.071
			c0.122,1.417,0.332,2.836,0.641,4.255l-5.892,3.985l1.714,4.82l7.074-0.644c0.724,1.425,1.536,2.778,2.434,4.058l-3.818,5.91
			l3.449,3.773l6.21-3.293c1.095,0.925,2.248,1.774,3.446,2.548l-1.316,6.921l4.614,2.195l4.516-5.4
			c1.493,0.488,3.024,0.871,4.578,1.143l1.47,6.886l5.101,0.224l2.069-6.728c1.412-0.121,2.828-0.336,4.243-0.644l3.972,5.901
			l4.81-1.716l-0.64-7.095c1.421-0.722,2.774-1.541,4.052-2.44l5.89,3.825l3.769-3.459l-3.286-6.222
			c0.923-1.103,1.773-2.256,2.548-3.46l6.905,1.318l2.19-4.623l-5.384-4.528c0.485-1.497,0.871-3.032,1.145-4.589l6.867-1.476
			l0.226-5.114l-6.709-2.069c-0.119-1.417-0.331-2.838-0.64-4.257l5.891-3.984l-1.709-4.822l-7.077,0.648
			c-0.721-1.425-1.535-2.779-2.434-4.06l3.818-5.908l-3.445-3.774l-6.21,3.293c-1.098-0.925-2.252-1.774-3.45-2.55l1.315-6.92
			l-4.608-2.193l-4.522,5.4c-1.493-0.49-3.022-0.872-4.576-1.147l-1.468-6.884l-5.101-0.224l-2.069,6.727
			c-1.415,0.123-2.831,0.336-4.244,0.644l-3.973-5.901l-4.812,1.72l0.642,7.091c-1.422,0.724-2.774,1.542-4.05,2.442l-5.893-3.825
			l-3.765,3.458l3.282,6.224c-0.922,1.1-1.774,2.254-2.543,3.459l-6.905-1.318l-2.193,4.622l5.385,4.528
			C33.461,12.135,33.079,13.667,32.803,15.229z M47.325,20.431l6.959,0.639c0.009,2.369,0.744,4.6,2.01,6.457l-5.376,4.472
			C48.53,28.752,47.186,24.72,47.325,20.431z M52.341,33.71l5.376-4.472c1.595,1.582,3.655,2.711,5.983,3.152l-0.639,6.959
			C58.818,38.705,55.098,36.649,52.341,33.71z M65.276,39.553l0.639-6.959c2.369-0.009,4.6-0.743,6.456-2.009l4.471,5.376
			C73.597,38.348,69.565,39.692,65.276,39.553z M78.555,34.537l-4.472-5.376c1.583-1.595,2.712-3.655,3.152-5.983l6.959,0.639
			C83.55,28.06,81.494,31.78,78.555,34.537z M84.398,21.602l-6.959-0.639c-0.009-2.369-0.744-4.6-2.01-6.457l5.376-4.471
			C83.193,13.281,84.537,17.313,84.398,21.602z M68.663,2.684c4.242,0.644,7.962,2.7,10.719,5.64l-5.376,4.471
			c-1.595-1.582-3.654-2.712-5.982-3.152L68.663,2.684z M75.175,21.872c-0.472,5.135-5.033,8.929-10.168,8.458
			c-5.135-0.472-8.93-5.033-8.458-10.168c0.472-5.135,5.033-8.93,10.169-8.458C71.852,12.175,75.646,16.737,75.175,21.872z
			 M66.447,2.481l-0.639,6.959c-2.369,0.009-4.601,0.744-6.457,2.01L54.88,6.073C58.126,3.685,62.158,2.341,66.447,2.481z
			 M53.168,7.496l4.471,5.376c-1.583,1.595-2.712,3.655-3.152,5.983l-6.959-0.639C48.173,13.973,50.229,10.254,53.168,7.496z"/>
		<path id="XMLID_14_" style="opacity:0.57;" d="M63.562,83.083l-3.231,0.693l-0.106,2.406l3.157,0.974
			c0.058,0.666,0.156,1.334,0.302,2.002l-2.772,1.875l0.806,2.268l3.329-0.303c0.341,0.67,0.723,1.307,1.145,1.909l-1.797,2.781
			l1.623,1.775l2.922-1.55c0.515,0.435,1.058,0.835,1.622,1.199l-0.619,3.257l2.171,1.033l2.125-2.541
			c0.703,0.229,1.423,0.41,2.154,0.538l0.692,3.24l2.4,0.106l0.974-3.166c0.664-0.057,1.331-0.158,1.996-0.303l1.869,2.777
			l2.264-0.808l-0.301-3.339c0.669-0.34,1.306-0.725,1.907-1.148l2.772,1.8l1.773-1.628l-1.546-2.927
			c0.434-0.519,0.834-1.062,1.199-1.628l3.249,0.62l1.031-2.175l-2.534-2.131c0.228-0.705,0.41-1.426,0.539-2.159l3.231-0.695
			l0.106-2.406l-3.157-0.974c-0.056-0.667-0.156-1.335-0.301-2.003l2.772-1.874l-0.804-2.269l-3.33,0.305
			c-0.339-0.671-0.723-1.308-1.145-1.91l1.797-2.78l-1.621-1.776l-2.922,1.55c-0.517-0.435-1.06-0.835-1.623-1.2l0.619-3.256
			l-2.168-1.032l-2.128,2.541c-0.702-0.23-1.422-0.41-2.153-0.54l-0.691-3.239l-2.4-0.105l-0.973,3.165
			c-0.666,0.058-1.332,0.158-1.997,0.303l-1.869-2.777l-2.264,0.809l0.302,3.337c-0.669,0.341-1.305,0.726-1.906,1.149l-2.773-1.8
			l-1.771,1.627l1.544,2.929c-0.434,0.518-0.835,1.061-1.197,1.628l-3.249-0.62l-1.032,2.175l2.534,2.131
			C63.872,81.627,63.692,82.348,63.562,83.083z"/>
		<path id="XMLID_13_" style="opacity:0.57;" d="M-4.504,15.184l-2.336,0.501l-0.077,1.74l2.282,0.705
			c0.042,0.482,0.113,0.965,0.218,1.448l-2.004,1.355l0.583,1.64l2.407-0.219c0.246,0.485,0.523,0.945,0.828,1.38l-1.299,2.01
			l1.173,1.284l2.113-1.12c0.373,0.315,0.765,0.603,1.172,0.867l-0.448,2.354l1.57,0.747l1.536-1.837
			c0.508,0.166,1.029,0.296,1.557,0.389l0.5,2.343l1.735,0.076l0.704-2.289c0.48-0.041,0.962-0.114,1.443-0.219l1.351,2.008
			l1.636-0.584l-0.218-2.414c0.483-0.246,0.944-0.524,1.378-0.83l2.004,1.301l1.282-1.177l-1.118-2.117
			c0.314-0.375,0.603-0.767,0.867-1.177l2.349,0.448l0.745-1.572l-1.832-1.541c0.165-0.509,0.296-1.031,0.39-1.561l2.336-0.502
			l0.077-1.74l-2.282-0.704c-0.04-0.482-0.112-0.965-0.218-1.448l2.004-1.355l-0.582-1.64l-2.408,0.22
			c-0.245-0.485-0.522-0.945-0.828-1.381l1.299-2.01l-1.172-1.284l-2.112,1.12c-0.374-0.315-0.766-0.603-1.174-0.867l0.447-2.354
			l-1.568-0.746l-1.538,1.837c-0.508-0.167-1.028-0.297-1.557-0.39l-0.5-2.342L6.479,3.46L5.776,5.748
			C5.294,5.79,4.812,5.862,4.332,5.967L2.98,3.96L1.343,4.545l0.218,2.412C1.078,7.204,0.618,7.482,0.184,7.788l-2.005-1.301
			l-1.281,1.176l1.116,2.117c-0.314,0.374-0.604,0.767-0.865,1.177L-5.2,10.509l-0.746,1.573l1.832,1.54
			C-4.28,14.131-4.41,14.652-4.504,15.184z"/>
		<path id="XMLID_8_" style="opacity:0.57;" d="M109.314,8.066l-2.336,0.501l-0.077,1.74l2.282,0.705
			c0.042,0.482,0.113,0.965,0.218,1.447l-2.004,1.356l0.583,1.64l2.407-0.219c0.246,0.485,0.523,0.945,0.828,1.38l-1.299,2.01
			l1.173,1.284l2.113-1.12c0.373,0.315,0.765,0.603,1.173,0.867l-0.448,2.354l1.57,0.747l1.536-1.837
			c0.508,0.166,1.029,0.296,1.557,0.389l0.5,2.342l1.735,0.076l0.704-2.289c0.48-0.041,0.962-0.114,1.443-0.219l1.351,2.007
			l1.637-0.584l-0.218-2.414c0.483-0.246,0.944-0.524,1.378-0.83l2.004,1.301l1.282-1.177l-1.118-2.116
			c0.314-0.375,0.603-0.768,0.867-1.177l2.349,0.448l0.745-1.573l-1.832-1.54c0.165-0.509,0.296-1.031,0.39-1.561l2.336-0.502
			l0.077-1.74l-2.282-0.704c-0.04-0.482-0.113-0.965-0.218-1.448l2.004-1.355l-0.582-1.64l-2.408,0.221
			c-0.245-0.485-0.522-0.945-0.828-1.381l1.299-2.01l-1.172-1.284l-2.112,1.12c-0.374-0.315-0.766-0.603-1.173-0.867l0.447-2.354
			l-1.568-0.746l-1.538,1.837c-0.508-0.167-1.028-0.297-1.557-0.39l-0.5-2.342l-1.735-0.076l-0.704,2.288
			c-0.481,0.042-0.963,0.114-1.444,0.219l-1.352-2.007l-1.637,0.585l0.218,2.412c-0.484,0.246-0.944,0.524-1.378,0.831l-2.005-1.301
			l-1.281,1.176l1.117,2.117c-0.313,0.374-0.604,0.767-0.865,1.177l-2.349-0.449l-0.746,1.572l1.832,1.54
			C109.538,7.013,109.408,7.534,109.314,8.066z"/>
		<path id="XMLID_7_" style="opacity:0.57;" d="M182.02,49.169l-2.336,0.501l-0.077,1.739l2.282,0.704
			c0.042,0.482,0.113,0.965,0.218,1.448l-2.004,1.355l0.583,1.64l2.406-0.219c0.246,0.485,0.523,0.945,0.828,1.38l-1.299,2.011
			l1.173,1.284l2.113-1.12c0.373,0.315,0.765,0.603,1.172,0.867l-0.448,2.354l1.57,0.747l1.536-1.837
			c0.508,0.166,1.029,0.296,1.557,0.389l0.5,2.342l1.735,0.076l0.704-2.289c0.48-0.041,0.962-0.114,1.443-0.219l1.351,2.007
			l1.636-0.584l-0.218-2.414c0.483-0.246,0.944-0.524,1.378-0.83l2.004,1.301l1.282-1.177l-1.118-2.117
			c0.314-0.375,0.603-0.768,0.867-1.177l2.349,0.448l0.745-1.572l-1.832-1.541c0.165-0.509,0.297-1.031,0.39-1.561l2.336-0.502
			l0.077-1.74l-2.283-0.704c-0.04-0.482-0.113-0.965-0.218-1.448l2.004-1.355l-0.581-1.64l-2.408,0.221
			c-0.245-0.485-0.522-0.946-0.828-1.381l1.299-2.01l-1.172-1.284l-2.112,1.12c-0.374-0.315-0.766-0.603-1.174-0.868l0.447-2.354
			l-1.568-0.746l-1.538,1.837c-0.508-0.167-1.028-0.297-1.557-0.39l-0.5-2.342l-1.735-0.076l-0.704,2.289
			c-0.481,0.042-0.963,0.114-1.444,0.219l-1.352-2.007l-1.637,0.585l0.218,2.412c-0.484,0.246-0.944,0.524-1.378,0.831l-2.005-1.301
			l-1.281,1.176l1.117,2.117c-0.314,0.374-0.604,0.767-0.865,1.177l-2.349-0.449l-0.746,1.572l1.832,1.54
			C182.243,48.117,182.113,48.638,182.02,49.169z"/>
		<path id="XMLID_6_" style="opacity:0.57;" d="M211.634,61.757l-1.603,0.344l-0.053,1.193l1.566,0.483
			c0.028,0.331,0.077,0.662,0.15,0.993l-1.375,0.93l0.4,1.125l1.651-0.15c0.169,0.332,0.359,0.648,0.568,0.947L212.047,69
			l0.805,0.88l1.449-0.769c0.256,0.216,0.525,0.414,0.804,0.595l-0.307,1.615l1.077,0.512l1.054-1.26
			c0.348,0.114,0.706,0.203,1.068,0.267l0.343,1.607l1.19,0.052l0.483-1.57c0.329-0.028,0.66-0.078,0.99-0.15l0.927,1.377
			l1.122-0.401l-0.149-1.656c0.332-0.169,0.648-0.36,0.946-0.569l1.374,0.893l0.88-0.807l-0.767-1.452
			c0.215-0.257,0.414-0.527,0.594-0.807l1.611,0.308l0.511-1.079l-1.257-1.057c0.113-0.349,0.203-0.707,0.267-1.071l1.602-0.345
			l0.053-1.193l-1.566-0.483c-0.028-0.331-0.077-0.662-0.149-0.993l1.375-0.93l-0.399-1.125l-1.652,0.151
			c-0.168-0.333-0.358-0.649-0.568-0.947l0.891-1.379l-0.804-0.881l-1.449,0.768c-0.256-0.216-0.526-0.414-0.805-0.595l0.307-1.615
			l-1.075-0.512l-1.055,1.26c-0.348-0.114-0.705-0.203-1.068-0.268l-0.343-1.606l-1.19-0.052l-0.483,1.57
			c-0.33,0.029-0.661,0.078-0.99,0.15l-0.927-1.377l-1.123,0.401l0.15,1.655c-0.332,0.169-0.647,0.36-0.945,0.57l-1.375-0.893
			l-0.878,0.807l0.766,1.452c-0.215,0.257-0.414,0.526-0.594,0.807l-1.611-0.308l-0.512,1.079l1.257,1.057
			C211.788,61.035,211.699,61.392,211.634,61.757z"/>
	</g>
	<path id="XMLID_85_" style="clip-path:url(#XMLID_00000107562235744463421450000001068950733525301396_);fill:#B3B3B3;" d="
		M151.345,107.535c-0.931-0.028-1.857,0.008-2.777,0.109l-1.959-3.638l-2.92,0.708l-0.068,4.127c-0.785,0.298-1.55,0.65-2.293,1.048
		l-3.185-2.631l-2.438,1.75l1.494,3.845c-0.67,0.626-1.302,1.305-1.888,2.036l-4-1.217l-1.564,2.56l2.917,2.99
		c-0.346,0.775-0.638,1.564-0.878,2.363l-4.115,0.384l-0.481,2.959l3.782,1.668c-0.028,0.926,0.009,1.851,0.112,2.768l-3.645,1.954
		l0.709,2.911l4.136,0.072c0.303,0.781,0.653,1.546,1.053,2.288l-2.636,3.176l1.757,2.432l3.853-1.488
		c0.629,0.67,1.31,1.3,2.043,1.885l-1.219,3.991l2.567,1.56l2.995-2.91c0.779,0.348,1.57,0.64,2.37,0.877l0.387,4.105l2.967,0.482
		l1.67-3.771c0.928,0.029,1.856-0.01,2.775-0.109l1.959,3.637l2.919-0.706l0.069-4.127c0.785-0.301,1.549-0.652,2.294-1.05
		l3.183,2.634l2.439-1.753l-1.494-3.844c0.67-0.627,1.302-1.307,1.887-2.037l4.002,1.217l1.562-2.56l-2.917-2.989
		c0.347-0.776,0.64-1.565,0.878-2.362l4.115-0.384l0.481-2.959l-3.783-1.669c0.029-0.926-0.008-1.852-0.11-2.769l3.644-1.95
		l-0.71-2.915l-4.136-0.071c-0.302-0.782-0.652-1.546-1.053-2.286l2.636-3.176l-1.756-2.434l-3.854,1.488
		c-0.628-0.669-1.309-1.298-2.041-1.885l1.217-3.99l-2.566-1.562l-2.996,2.91c-0.779-0.347-1.57-0.638-2.369-0.878l-0.388-4.104
		l-2.967-0.482L151.345,107.535 M143.52,126.57c0.364-3.963,3.881-6.882,7.856-6.517c3.974,0.365,6.901,3.876,6.537,7.839
		c-0.364,3.965-3.882,6.884-7.855,6.519C146.083,134.046,143.156,130.535,143.52,126.57"/>
	<path id="XMLID_74_" style="clip-path:url(#XMLID_00000107562235744463421450000001068950733525301396_);fill:#B3B3B3;" d="
		M76.541,84.296l-2.038-3.593L71.6,81.474l0.023,4.128c-0.778,0.315-1.536,0.684-2.269,1.098L66.11,84.14l-2.399,1.804l1.578,3.812
		c-0.656,0.641-1.273,1.334-1.843,2.077l-4.026-1.129l-1.508,2.594l2.982,2.925c-0.329,0.783-0.603,1.578-0.826,2.382l-4.105,0.475
		l-0.416,2.969l3.818,1.584c-0.007,0.927,0.049,1.851,0.173,2.765l-3.602,2.033l0.773,2.895l4.136-0.019
		c0.32,0.774,0.687,1.532,1.103,2.264l-2.566,3.233l1.811,2.393l3.819-1.572c0.643,0.656,1.338,1.271,2.084,1.84l-1.131,4.017
		l2.601,1.503l2.93-2.975c0.786,0.33,1.584,0.605,2.389,0.825l0.477,4.095l2.977,0.416l1.587-3.807
		c0.929,0.008,1.856-0.051,2.772-0.17l2.038,3.593l2.903-0.77l-0.022-4.128c0.778-0.318,1.534-0.686,2.27-1.101l3.241,2.563
		l2.4-1.806l-1.578-3.81c0.656-0.641,1.273-1.335,1.842-2.078l4.028,1.128l1.505-2.594l-2.982-2.924
		c0.329-0.784,0.605-1.578,0.826-2.381l4.106-0.475l0.416-2.969l-3.818-1.585c0.009-0.926-0.049-1.851-0.17-2.765l3.6-2.03
		l-0.773-2.899l-4.137,0.02c-0.319-0.775-0.686-1.531-1.103-2.262l2.566-3.233l-1.81-2.395l-3.821,1.572
		c-0.643-0.655-1.337-1.269-2.082-1.839l1.129-4.015l-2.6-1.505l-2.931,2.975c-0.786-0.33-1.583-0.603-2.388-0.825l-0.478-4.095
		L80.9,80.318l-1.585,3.808C78.383,84.118,77.458,84.174,76.541,84.296z M87.06,96.378l-3.157,2.626
		c-0.936-0.929-2.146-1.592-3.513-1.851l0.375-4.086C83.256,93.445,85.44,94.652,87.06,96.378z M90.005,104.175l-4.087-0.375
		c-0.006-1.391-0.437-2.701-1.18-3.791l3.157-2.626C89.297,99.289,90.086,101.657,90.005,104.175z M86.574,111.77l-2.626-3.157
		c0.929-0.936,1.592-2.146,1.851-3.513l4.087,0.375C89.507,107.967,88.299,110.151,86.574,111.77z M78.777,114.715l0.375-4.086
		c1.391-0.005,2.701-0.437,3.791-1.18l2.626,3.157C83.662,114.008,81.295,114.797,78.777,114.715z M71.181,111.285l3.157-2.626
		c0.936,0.929,2.146,1.592,3.513,1.851l-0.375,4.086C74.984,114.218,72.8,113.01,71.181,111.285z M72.322,103.863
		c0.006,1.391,0.437,2.701,1.18,3.791l-3.157,2.626c-1.402-1.907-2.191-4.274-2.109-6.792L72.322,103.863z M73.652,103.329
		c0.277-3.015,2.956-5.243,5.971-4.966c3.015,0.277,5.243,2.955,4.966,5.971c-0.277,3.015-2.955,5.243-5.971,4.966
		C75.603,109.023,73.375,106.344,73.652,103.329z M71.667,95.892l2.626,3.157c-0.929,0.936-1.592,2.146-1.851,3.513l-4.086-0.375
		C68.734,99.695,69.941,97.511,71.667,95.892z M79.464,92.947l-0.375,4.086c-1.391,0.005-2.701,0.437-3.791,1.18l-2.626-3.157
		C74.578,93.654,76.946,92.865,79.464,92.947z"/>
	<path id="XMLID_73_" style="clip-path:url(#XMLID_00000107562235744463421450000001068950733525301396_);fill:#B3B3B3;" d="
		M114.108,108.94l0.746-1.792l1.4,0.196l0.225,1.927c0.379,0.104,0.754,0.233,1.124,0.388l1.379-1.4l1.223,0.708l-0.531,1.889
		c0.351,0.268,0.677,0.557,0.98,0.865l1.798-0.74l0.851,1.127l-1.207,1.521c0.196,0.344,0.369,0.7,0.519,1.065l1.947-0.009
		l0.364,1.364l-1.694,0.955c0.057,0.43,0.084,0.865,0.08,1.301l1.797,0.746l-0.196,1.397l-1.932,0.224
		c-0.104,0.377-0.233,0.751-0.389,1.12l1.403,1.376l-0.708,1.22l-1.895-0.531c-0.268,0.35-0.558,0.676-0.867,0.978l0.743,1.793
		l-1.129,0.85l-1.525-1.206c-0.346,0.195-0.702,0.368-1.068,0.518l0.01,1.942l-1.366,0.362l-0.959-1.691
		c-0.431,0.056-0.868,0.084-1.304,0.08l-0.747,1.791l-1.401-0.196l-0.224-1.927c-0.379-0.104-0.754-0.233-1.124-0.388l-1.379,1.4
		l-1.224-0.707l0.532-1.89c-0.351-0.268-0.678-0.557-0.981-0.866l-1.797,0.74l-0.852-1.126l1.207-1.521
		c-0.196-0.345-0.368-0.701-0.519-1.065l-1.946,0.009l-0.364-1.362l1.695-0.957c-0.058-0.43-0.085-0.865-0.081-1.301l-1.796-0.745
		l0.196-1.397l1.932-0.223c0.105-0.378,0.234-0.752,0.389-1.121l-1.403-1.376l0.709-1.221l1.894,0.531
		c0.268-0.35,0.558-0.676,0.867-0.977l-0.743-1.794l1.129-0.849l1.526,1.205c0.345-0.195,0.702-0.368,1.068-0.517l-0.011-1.942
		l1.366-0.363l0.959,1.691C113.234,108.963,113.669,108.936,114.108,108.94z"/>
	<path id="XMLID_70_" style="clip-path:url(#XMLID_00000107562235744463421450000001068950733525301396_);fill:#B3B3B3;" d="
		M-10.559,110.206l-4.013,0.953l-0.066,3.005l3.965,1.129c0.09,0.83,0.232,1.66,0.431,2.489l-3.407,2.415l1.068,2.808l4.144-0.47
		c0.443,0.827,0.938,1.611,1.481,2.351l-2.165,3.519l2.073,2.17l3.603-2.014c0.655,0.529,1.342,1.012,2.056,1.452l-0.683,4.08
		l2.737,1.229l2.581-3.228c0.883,0.267,1.786,0.472,2.702,0.612l0.952,4.023l2.997,0.066l1.128-3.977
		c0.827-0.089,1.656-0.234,2.482-0.433l2.408,3.413l2.802-1.07l-0.467-4.157c0.825-0.443,1.609-0.941,2.347-1.485l3.507,2.169
		l2.168-2.079l-2.01-3.61c0.528-0.66,1.012-1.347,1.451-2.064l4.071,0.684l1.226-2.742l-3.22-2.589
		c0.265-0.885,0.472-1.791,0.613-2.709l4.012-0.955l0.067-3.005l-3.966-1.128c-0.088-0.83-0.231-1.661-0.431-2.49l3.407-2.415
		l-1.066-2.809l-4.146,0.472c-0.442-0.827-0.937-1.612-1.481-2.352l2.165-3.518l-2.071-2.171l-3.603,2.014
		c-0.657-0.529-1.345-1.012-2.058-1.452l0.683-4.08l-2.733-1.228l-2.585,3.229c-0.882-0.268-1.786-0.473-2.701-0.614l-0.951-4.022
		l-2.997-0.066l-1.128,3.976c-0.829,0.091-1.658,0.234-2.483,0.433l-2.409-3.413l-2.802,1.072l0.468,4.155
		c-0.825,0.444-1.609,0.941-2.346,1.486l-3.509-2.169l-2.165,2.079l2.007,3.611c-0.527,0.658-1.012,1.346-1.448,2.064l-4.071-0.685
		l-1.228,2.742l3.22,2.589C-10.213,108.382-10.417,109.286-10.559,110.206 M9.584,105.98c3.965,0.364,6.884,3.881,6.519,7.856
		c-0.365,3.974-3.876,6.901-7.841,6.536c-3.963-0.364-6.883-3.882-6.518-7.855C2.109,108.543,5.62,105.616,9.584,105.98"/>
	<path id="XMLID_69_" style="clip-path:url(#XMLID_00000107562235744463421450000001068950733525301396_);fill:#B3B3B3;" d="
		M109.729,79.205l1.377,0.392l-0.023,1.044l-1.394,0.332c-0.049,0.319-0.121,0.633-0.213,0.941l1.118,0.899l-0.426,0.952
		l-1.414-0.238c-0.153,0.249-0.321,0.488-0.504,0.717l0.698,1.254l-0.753,0.722l-1.218-0.753c-0.256,0.189-0.528,0.362-0.815,0.515
		l0.162,1.444l-0.973,0.371l-0.836-1.185c-0.287,0.069-0.575,0.119-0.862,0.15l-0.392,1.381l-1.041-0.023l-0.33-1.397
		c-0.318-0.049-0.632-0.12-0.938-0.213l-0.896,1.121l-0.951-0.427l0.237-1.417c-0.248-0.153-0.487-0.321-0.714-0.504l-1.251,0.699
		l-0.72-0.754l0.752-1.222c-0.189-0.257-0.36-0.529-0.514-0.816l-1.439,0.163l-0.371-0.975l1.183-0.839
		c-0.069-0.288-0.119-0.576-0.15-0.865l-1.377-0.392l0.023-1.043l1.394-0.331c0.049-0.32,0.12-0.634,0.213-0.941l-1.118-0.899
		l0.426-0.952l1.414,0.238c0.152-0.249,0.32-0.488,0.503-0.717l-0.697-1.254l0.752-0.722l1.219,0.753
		c0.256-0.189,0.528-0.362,0.815-0.516l-0.163-1.443l0.973-0.372l0.837,1.185c0.287-0.069,0.574-0.119,0.862-0.15l0.392-1.381
		l1.041,0.023l0.33,1.397c0.318,0.049,0.632,0.12,0.938,0.213l0.898-1.121l0.949,0.426l-0.237,1.417
		c0.248,0.153,0.487,0.321,0.715,0.504l1.251-0.699l0.719,0.754l-0.752,1.222c0.189,0.257,0.361,0.529,0.515,0.817l1.44-0.164
		l0.37,0.975l-1.183,0.839C109.649,78.628,109.699,78.916,109.729,79.205z"/>
	<path id="XMLID_68_" style="clip-path:url(#XMLID_00000107562235744463421450000001068950733525301396_);fill:#B3B3B3;" d="
		M92.435,71.482l0.782,0.222l-0.013,0.592l-0.791,0.188c-0.028,0.181-0.069,0.359-0.121,0.534l0.635,0.51l-0.242,0.541l-0.802-0.135
		c-0.087,0.141-0.182,0.277-0.286,0.407l0.396,0.712l-0.427,0.41l-0.691-0.428c-0.146,0.107-0.3,0.205-0.463,0.293l0.092,0.819
		l-0.552,0.211l-0.475-0.673c-0.163,0.039-0.326,0.068-0.489,0.085l-0.222,0.784l-0.591-0.013l-0.188-0.793
		c-0.18-0.028-0.359-0.068-0.533-0.121l-0.509,0.636l-0.54-0.242l0.135-0.804c-0.141-0.087-0.276-0.182-0.405-0.286l-0.71,0.397
		l-0.409-0.428l0.427-0.693c-0.107-0.146-0.205-0.3-0.292-0.463l-0.817,0.092l-0.211-0.553l0.672-0.476
		c-0.039-0.163-0.067-0.327-0.085-0.491l-0.782-0.222l0.013-0.592l0.791-0.188c0.028-0.182,0.068-0.36,0.121-0.534l-0.635-0.51
		l0.242-0.541l0.802,0.135c0.086-0.141,0.182-0.277,0.285-0.407l-0.396-0.712l0.427-0.41l0.692,0.428
		c0.145-0.107,0.3-0.205,0.462-0.293l-0.092-0.819l0.552-0.211l0.475,0.673c0.163-0.039,0.326-0.067,0.489-0.085l0.222-0.784
		l0.591,0.013l0.188,0.793c0.18,0.028,0.358,0.068,0.532,0.121l0.509-0.636l0.539,0.242l-0.134,0.804
		c0.141,0.087,0.276,0.182,0.406,0.286l0.71-0.397l0.408,0.428l-0.427,0.693c0.107,0.146,0.205,0.3,0.292,0.464l0.817-0.093
		l0.21,0.554l-0.671,0.476C92.389,71.155,92.417,71.319,92.435,71.482z"/>
	<path id="XMLID_57_" style="clip-path:url(#XMLID_00000107562235744463421450000001068950733525301396_);fill:#B3B3B3;" d="
		M19.794,74.95l-4.033,0.865l-0.133,3.003l3.939,1.216c0.072,0.832,0.195,1.665,0.377,2.498l-3.46,2.34l1.006,2.83l4.154-0.378
		c0.425,0.836,0.902,1.631,1.429,2.383l-2.242,3.47l2.025,2.215l3.646-1.934c0.643,0.543,1.32,1.041,2.024,1.496l-0.773,4.064
		l2.709,1.289l2.652-3.171c0.877,0.286,1.776,0.511,2.688,0.671l0.863,4.043l2.995,0.132l1.215-3.951
		c0.829-0.071,1.66-0.197,2.491-0.378l2.332,3.465l2.825-1.008l-0.376-4.166c0.834-0.424,1.629-0.905,2.379-1.433l3.459,2.246
		l2.213-2.031l-1.93-3.653c0.542-0.648,1.041-1.325,1.496-2.032l4.055,0.774l1.286-2.714l-3.162-2.659
		c0.285-0.879,0.512-1.78,0.672-2.695l4.033-0.867l0.133-3.003l-3.94-1.215c-0.07-0.832-0.194-1.666-0.376-2.499l3.459-2.339
		l-1.004-2.831l-4.156,0.381c-0.423-0.837-0.902-1.632-1.429-2.384l2.242-3.469l-2.023-2.216l-3.646,1.934
		c-0.645-0.543-1.322-1.041-2.026-1.497l0.772-4.063l-2.706-1.288l-2.655,3.171c-0.876-0.287-1.775-0.512-2.687-0.673l-0.862-4.042
		l-2.995-0.132l-1.215,3.95c-0.831,0.072-1.662,0.197-2.492,0.378l-2.333-3.465l-2.825,1.01l0.377,4.164
		c-0.835,0.425-1.629,0.905-2.378,1.434l-3.46-2.246l-2.211,2.031l1.927,3.655c-0.541,0.646-1.042,1.323-1.493,2.031l-4.055-0.774
		l-1.288,2.714l3.162,2.659C20.18,73.133,19.956,74.032,19.794,74.95z M28.321,78.004l4.086,0.375
		c0.005,1.391,0.437,2.701,1.18,3.791l-3.157,2.626C29.029,82.89,28.24,80.523,28.321,78.004z M31.267,85.801l3.157-2.626
		c0.936,0.929,2.146,1.592,3.513,1.851l-0.375,4.087C35.07,88.734,32.886,87.527,31.267,85.801z M38.862,89.232l0.375-4.087
		c1.391-0.005,2.701-0.437,3.791-1.18l2.626,3.157C43.748,88.525,41.38,89.314,38.862,89.232z M46.659,86.287l-2.626-3.157
		c0.929-0.936,1.592-2.146,1.851-3.513l4.086,0.375C49.592,82.484,48.385,84.668,46.659,86.287z M50.09,78.692l-4.086-0.375
		c-0.005-1.391-0.437-2.701-1.18-3.791l3.157-2.626C49.383,73.806,50.172,76.173,50.09,78.692z M40.851,67.583
		c2.491,0.378,4.675,1.586,6.294,3.312l-3.157,2.626c-0.936-0.929-2.146-1.592-3.513-1.851L40.851,67.583z M44.674,78.85
		c-0.277,3.015-2.955,5.243-5.971,4.966c-3.015-0.277-5.243-2.955-4.966-5.971c0.277-3.015,2.956-5.243,5.971-4.966
		C42.723,73.156,44.951,75.835,44.674,78.85z M39.549,67.464l-0.375,4.086c-1.391,0.006-2.701,0.437-3.791,1.18l-2.626-3.157
		C34.664,68.171,37.031,67.382,39.549,67.464z M31.752,70.409l2.626,3.157c-0.929,0.936-1.592,2.146-1.851,3.513l-4.086-0.375
		C28.819,74.212,30.027,72.028,31.752,70.409z"/>
	<path id="XMLID_56_" style="clip-path:url(#XMLID_00000107562235744463421450000001068950733525301396_);fill:#B3B3B3;" d="
		M37.855,114.793l-1.898,0.407l-0.062,1.413l1.854,0.572c0.034,0.391,0.092,0.784,0.177,1.176l-1.628,1.101l0.473,1.332l1.954-0.178
		c0.2,0.394,0.425,0.768,0.672,1.121l-1.055,1.633l0.953,1.043l1.716-0.91c0.303,0.256,0.621,0.49,0.952,0.704l-0.364,1.912
		l1.275,0.606l1.248-1.492c0.413,0.135,0.835,0.241,1.265,0.316l0.406,1.902l1.409,0.062l0.572-1.859
		c0.39-0.033,0.781-0.093,1.172-0.178l1.097,1.63l1.329-0.474l-0.177-1.96c0.393-0.2,0.767-0.426,1.119-0.674l1.628,1.057
		l1.041-0.956l-0.908-1.719c0.255-0.305,0.49-0.623,0.704-0.956l1.908,0.364l0.605-1.277l-1.488-1.251
		c0.134-0.414,0.241-0.838,0.317-1.268l1.897-0.408l0.063-1.413l-1.854-0.572c-0.033-0.392-0.091-0.784-0.177-1.176l1.627-1.101
		l-0.472-1.332l-1.955,0.179c-0.199-0.394-0.424-0.768-0.673-1.122l1.055-1.632l-0.952-1.043l-1.716,0.91
		c-0.303-0.256-0.622-0.49-0.953-0.704l0.363-1.912l-1.273-0.606l-1.249,1.492c-0.412-0.135-0.835-0.241-1.264-0.317l-0.406-1.902
		l-1.409-0.062l-0.572,1.859c-0.391,0.034-0.782,0.093-1.173,0.178l-1.098-1.63l-1.329,0.475l0.177,1.959
		c-0.393,0.2-0.766,0.426-1.119,0.675l-1.628-1.057l-1.04,0.956l0.907,1.72c-0.255,0.304-0.49,0.623-0.703,0.956l-1.908-0.364
		l-0.606,1.277l1.488,1.251C38.037,113.938,37.932,114.361,37.855,114.793z"/>
	<path id="XMLID_55_" style="clip-path:url(#XMLID_00000107562235744463421450000001068950733525301396_);fill:#B3B3B3;" d="
		M-2.112,74.923l-1.372,0.294l-0.045,1.021l1.34,0.414c0.024,0.283,0.066,0.566,0.128,0.85l-1.177,0.796l0.342,0.963l1.413-0.129
		c0.145,0.285,0.307,0.555,0.486,0.811l-0.763,1.18l0.689,0.754l1.24-0.658c0.219,0.185,0.449,0.354,0.688,0.509l-0.263,1.383
		l0.922,0.438L2.42,82.47c0.298,0.097,0.604,0.174,0.914,0.228l0.294,1.376l1.019,0.045l0.413-1.344
		c0.282-0.024,0.565-0.067,0.847-0.129l0.793,1.179l0.961-0.343l-0.128-1.417c0.284-0.144,0.554-0.308,0.809-0.487l1.177,0.764
		l0.753-0.691l-0.657-1.243c0.184-0.22,0.354-0.451,0.509-0.691l1.379,0.263l0.438-0.923l-1.076-0.905
		c0.097-0.299,0.174-0.606,0.229-0.917l1.372-0.295l0.045-1.021l-1.34-0.413c-0.024-0.283-0.066-0.567-0.128-0.85l1.177-0.796
		l-0.342-0.963l-1.414,0.13c-0.144-0.285-0.307-0.555-0.486-0.811l0.763-1.18l-0.688-0.754l-1.24,0.658
		c-0.219-0.185-0.45-0.354-0.689-0.509l0.263-1.382l-0.92-0.438l-0.903,1.079c-0.298-0.098-0.604-0.174-0.914-0.229l-0.293-1.375
		l-1.019-0.045l-0.413,1.344c-0.283,0.025-0.566,0.067-0.848,0.129l-0.794-1.179l-0.961,0.343l0.128,1.417
		C1.165,70.237,0.895,70.4,0.64,70.58l-1.177-0.764l-0.752,0.691l0.656,1.243c-0.184,0.22-0.354,0.45-0.508,0.691l-1.379-0.263
		l-0.438,0.923l1.076,0.905C-1.981,74.305-2.057,74.611-2.112,74.923z"/>
	<path id="XMLID_54_" style="clip-path:url(#XMLID_00000107562235744463421450000001068950733525301396_);fill:#B3B3B3;" d="
		M64.72,70.743l-1.372,0.294l-0.045,1.021l1.34,0.414c0.024,0.283,0.066,0.566,0.128,0.85l-1.177,0.796l0.342,0.963l1.413-0.129
		c0.145,0.285,0.307,0.555,0.486,0.811l-0.763,1.181l0.689,0.754l1.241-0.658c0.219,0.185,0.449,0.354,0.688,0.509l-0.263,1.383
		l0.922,0.438l0.902-1.079c0.298,0.097,0.604,0.174,0.914,0.228l0.294,1.375l1.019,0.045l0.413-1.344
		c0.282-0.024,0.565-0.067,0.847-0.129l0.793,1.179l0.961-0.343l-0.128-1.417c0.284-0.144,0.554-0.308,0.809-0.487l1.177,0.764
		l0.753-0.691l-0.657-1.243c0.184-0.22,0.354-0.451,0.509-0.691l1.379,0.263l0.437-0.923l-1.076-0.904
		c0.097-0.299,0.174-0.606,0.229-0.917l1.372-0.295l0.045-1.021l-1.34-0.413c-0.024-0.283-0.066-0.567-0.128-0.85l1.177-0.796
		l-0.341-0.963l-1.414,0.129c-0.144-0.285-0.307-0.555-0.486-0.811l0.763-1.18l-0.688-0.754l-1.24,0.658
		c-0.219-0.185-0.45-0.354-0.689-0.509l0.263-1.382l-0.921-0.438l-0.903,1.079c-0.298-0.098-0.604-0.174-0.914-0.229l-0.293-1.375
		l-1.019-0.045l-0.413,1.344c-0.283,0.025-0.565,0.067-0.848,0.129l-0.794-1.179l-0.961,0.343l0.128,1.416
		c-0.284,0.145-0.554,0.308-0.809,0.488l-1.177-0.764l-0.752,0.691l0.656,1.243c-0.184,0.22-0.354,0.45-0.508,0.691l-1.379-0.263
		l-0.438,0.923l1.076,0.904C64.852,70.125,64.776,70.431,64.72,70.743z"/>
	<path id="XMLID_53_" style="clip-path:url(#XMLID_00000107562235744463421450000001068950733525301396_);fill:#B3B3B3;" d="
		M107.412,94.879l-1.372,0.294l-0.045,1.021l1.34,0.414c0.024,0.283,0.066,0.566,0.128,0.85l-1.177,0.796l0.342,0.963l1.413-0.129
		c0.145,0.285,0.307,0.555,0.486,0.811l-0.763,1.18l0.689,0.754l1.241-0.658c0.219,0.185,0.449,0.354,0.688,0.509l-0.263,1.383
		l0.922,0.438l0.902-1.079c0.298,0.097,0.604,0.174,0.914,0.228l0.294,1.376l1.019,0.045l0.413-1.344
		c0.282-0.024,0.565-0.067,0.848-0.129l0.793,1.179l0.961-0.343l-0.128-1.417c0.284-0.144,0.554-0.308,0.809-0.487l1.177,0.764
		l0.753-0.691l-0.656-1.243c0.184-0.22,0.354-0.451,0.509-0.691l1.379,0.263l0.438-0.923l-1.076-0.905
		c0.097-0.299,0.174-0.606,0.229-0.917l1.372-0.295l0.045-1.021l-1.34-0.413c-0.024-0.283-0.066-0.567-0.128-0.85l1.177-0.796
		l-0.341-0.963l-1.414,0.13c-0.144-0.285-0.307-0.555-0.486-0.811l0.763-1.18l-0.688-0.754l-1.24,0.658
		c-0.219-0.185-0.45-0.354-0.689-0.509l0.263-1.382l-0.92-0.438l-0.903,1.079c-0.298-0.098-0.604-0.174-0.914-0.229l-0.293-1.375
		l-1.019-0.045l-0.413,1.344c-0.283,0.025-0.566,0.067-0.848,0.129l-0.794-1.179l-0.961,0.343l0.128,1.417
		c-0.284,0.145-0.554,0.308-0.809,0.488l-1.177-0.764l-0.752,0.691l0.656,1.243c-0.184,0.22-0.354,0.45-0.508,0.691l-1.379-0.263
		l-0.438,0.923l1.076,0.905C107.544,94.261,107.467,94.567,107.412,94.879z"/>
	<path id="XMLID_52_" style="clip-path:url(#XMLID_00000107562235744463421450000001068950733525301396_);fill:#B3B3B3;" d="
		M124.802,102.27l-0.941,0.202l-0.031,0.701l0.919,0.284c0.017,0.194,0.046,0.389,0.088,0.583l-0.807,0.546l0.235,0.66l0.969-0.088
		c0.099,0.195,0.211,0.381,0.334,0.556l-0.523,0.81l0.473,0.517l0.851-0.451c0.15,0.127,0.308,0.243,0.472,0.349l-0.18,0.948
		l0.632,0.301l0.619-0.74c0.205,0.067,0.414,0.119,0.627,0.157l0.201,0.943l0.699,0.031l0.283-0.922
		c0.193-0.017,0.387-0.046,0.581-0.088l0.544,0.809l0.659-0.235l-0.088-0.972c0.195-0.099,0.38-0.211,0.555-0.334l0.807,0.524
		l0.516-0.474l-0.45-0.853c0.126-0.151,0.243-0.309,0.349-0.474l0.946,0.181l0.3-0.633l-0.738-0.62
		c0.066-0.205,0.119-0.415,0.157-0.629l0.941-0.202l0.031-0.701l-0.919-0.284c-0.016-0.194-0.045-0.389-0.088-0.583l0.807-0.546
		l-0.234-0.661l-0.97,0.089c-0.099-0.195-0.21-0.381-0.333-0.556l0.523-0.809l-0.472-0.517l-0.851,0.451
		c-0.15-0.127-0.309-0.243-0.473-0.349l0.18-0.948l-0.631-0.3l-0.62,0.74c-0.204-0.067-0.414-0.119-0.627-0.157l-0.201-0.943
		l-0.699-0.031l-0.284,0.922c-0.194,0.017-0.388,0.046-0.582,0.088l-0.544-0.809l-0.659,0.236l0.088,0.972
		c-0.195,0.099-0.38,0.211-0.555,0.335l-0.808-0.524l-0.516,0.474l0.45,0.853c-0.126,0.151-0.243,0.309-0.349,0.474l-0.946-0.181
		l-0.301,0.633l0.738,0.62C124.892,101.846,124.84,102.056,124.802,102.27z"/>
</g>
<g id="Design">
	<defs>
		<rect id="XMLID_5_" width="270" height="125"/>
	</defs>
	<clipPath id="XMLID_00000175296867315479501530000016660563669393343365_">
		<use xlink:href="#XMLID_5_"  style="overflow:visible;"/>
	</clipPath>
</g>
</svg>
