<svg width="1024" height="308" viewBox="0 0 1024 308" fill="none" xmlns="http://www.w3.org/2000/svg">
<path fill-rule="evenodd" clip-rule="evenodd" d="M153.049 0C159.518 0 165.986 0.413423 167.5 0.826846C169.839 1.37808 170.39 3.16958 171.216 14.1942C171.904 21.2224 172.454 27.0103 172.592 27.1481C172.867 27.4237 174.243 27.8371 175.757 28.1128C177.271 28.3884 181.4 29.353 185.116 30.1799C188.694 31.0067 194.887 32.936 198.74 34.4519C202.731 35.9678 206.447 37.2081 206.998 37.2081C207.686 37.2081 211.126 32.5226 221.861 16.5369L231.082 21.498C236.312 24.2541 243.055 28.664 246.22 31.1445C249.523 33.7629 252.138 36.9324 252.138 38.3105C252.138 39.5508 250.074 44.0984 247.597 48.2327C245.119 52.3669 242.642 56.9145 242.092 58.2926C241.404 59.9463 243.055 62.7025 247.597 67.9391C251.312 71.9356 256.129 77.5857 262.46 85.8541L273.745 81.4443C280.076 79.1016 286.131 77.1723 287.232 77.1723C288.471 77.1723 291.086 81.0309 293.563 86.5432C295.903 91.6421 298.93 98.9459 300.306 102.667C301.683 106.525 302.646 110.108 302.233 110.935C301.958 111.762 297.416 113.691 292.049 115.483C286.819 117.136 281.452 119.617 280.213 120.995C278.424 122.787 278.149 124.716 278.975 129.539C279.525 132.984 280.351 140.426 281.727 156.412L292.049 158.617C297.692 159.719 303.472 161.097 304.71 161.648C306.5 162.337 307.188 164.129 307.188 168.539C307.188 171.708 305.949 179.288 304.298 185.351C302.784 191.415 301.132 196.927 300.582 197.478C300.031 198.167 294.664 197.754 288.608 196.514C280.076 194.86 277.186 194.86 275.947 196.1C275.121 197.065 271.268 203.817 267.414 211.259C263.561 218.563 260.396 225.453 260.396 226.418C260.533 227.245 263.836 231.517 267.965 235.651C272.094 239.785 275.534 244.195 275.534 245.298C275.534 246.4 272.231 251.361 268.24 256.322C264.249 261.283 259.295 266.382 257.23 267.76C255.166 269 252.689 270.103 251.725 270.103C250.9 270.103 246.496 266.933 242.092 263.213C237.825 259.354 233.421 256.322 232.458 256.322C231.632 256.322 226.127 259.354 220.485 262.937C214.705 266.52 208.924 270.103 207.411 270.93C205.209 272.17 204.796 273.686 205.071 277.82C205.346 280.852 206.447 285.813 207.548 289.12C208.787 292.703 209.062 295.735 208.236 297.389C207.548 298.767 202.731 301.11 196.263 303.039C190.208 304.83 183.189 306.76 175.344 308L172.317 297.664C170.665 292.014 168.325 285.951 167.362 284.297C165.573 281.403 164.472 281.128 140.663 281.128L138.461 289.12C137.36 293.392 135.571 299.318 133.094 307.587L126.901 306.76C123.46 306.209 116.717 304.693 111.762 303.177C106.808 301.661 101.716 299.732 100.339 298.767C98.1375 297.113 98.1375 296.424 100.752 287.053C102.266 281.541 103.505 275.891 103.505 274.651C103.505 273.135 101.165 270.93 97.0365 268.863C93.3206 267.071 87.2652 263.626 83.5494 261.008C79.6959 258.527 75.8425 256.322 74.8791 256.322C74.0533 256.322 69.6494 259.492 65.2454 263.213C60.9791 267.071 56.1623 270.103 54.6484 270.103C53.1346 270.103 49.0059 267.209 45.5653 263.626C41.9871 259.905 37.1702 254.255 30.5643 244.609L38.8217 236.064C43.3633 231.241 47.0791 227.107 47.0791 226.694C47.0791 226.28 43.9138 219.665 40.0603 211.948C36.2069 204.093 32.6286 197.065 31.9405 196.376C31.1148 195.457 27.3531 195.549 20.6554 196.651C15.1505 197.616 9.78313 198.305 8.81977 198.305C7.8564 198.443 5.92967 194.171 4.27819 188.521C2.62671 183.009 0.975226 174.878 0.424731 170.606C-0.40101 163.164 -0.263387 162.751 3.03958 161.511C4.96631 160.684 10.4713 159.306 15.2881 158.203C20.1049 157.238 24.5089 155.723 25.0594 155.034C25.6098 154.207 26.5732 148.419 27.1237 141.942C27.6742 135.465 28.2247 128.437 28.3623 126.232C28.4999 123.062 27.6742 121.684 25.0594 120.306C23.1326 119.479 18.0405 116.999 13.6366 115.069C6.0673 111.762 5.79205 111.486 6.48017 107.214C6.89304 104.734 9.64551 97.1544 12.398 90.4018C15.1505 83.787 18.0405 77.9991 18.8663 77.5857C19.692 77.3101 25.7475 78.9638 44.6019 86.1298L49.0059 80.6175C51.3455 77.5857 56.1623 72.0734 59.8781 68.2148C63.4563 64.494 66.2088 60.3597 66.0712 59.2573C65.7959 58.1548 63.3187 53.3315 60.4286 48.6461C57.6761 43.8228 55.3365 38.9996 55.3365 37.8971C55.3365 36.7946 58.9148 33.0738 63.1811 29.9043C67.585 26.5969 74.0533 22.187 84.2375 16.5369L87.2652 20.3955C89.0543 22.6004 92.4949 27.2859 99.3761 37.2081L105.844 35.1409C109.56 33.9007 116.717 31.9714 122.084 30.8689C127.314 29.6286 132.681 28.1128 133.782 27.5615C135.296 26.8725 135.984 23.7029 136.259 15.021C136.534 6.06353 137.085 3.03177 139.012 1.65369C140.388 0.689038 145.755 0 153.049 0V0ZM124.836 95.0872C120.295 97.1544 113.138 102.253 108.872 106.387C103.918 111.073 99.3761 117.274 96.2107 123.751C92.7701 130.504 90.5682 137.119 89.6048 144.422C88.3662 152.415 88.3662 157.376 89.6048 164.68C90.5682 170.055 93.183 178.323 95.5226 183.284C98.2751 189.072 102.817 195.136 108.184 200.51C112.863 205.058 120.157 210.432 124.561 212.637C128.828 214.704 135.709 217.047 139.562 217.874C143.691 218.838 152.086 219.114 158.554 218.701C165.986 218.287 173.005 216.909 177.822 214.98C181.95 213.326 187.868 210.157 190.896 208.089C193.923 206.022 198.465 202.164 201.08 199.545C203.695 197.065 207.548 192.242 209.75 188.796C211.952 185.351 214.98 178.599 216.494 173.638C218.145 167.987 219.109 160.821 219.109 154.069C219.109 147.73 218.145 140.013 216.631 135.465C215.255 131.055 212.227 124.44 209.888 120.582C207.548 116.861 202.319 110.522 198.19 106.663C194.199 102.804 187.593 97.9812 183.602 96.0519C179.748 93.9848 172.867 91.3664 168.463 90.264C164.197 89.1615 156.903 88.1969 152.361 88.3347C147.82 88.4725 141.627 89.0237 138.599 89.8506C135.571 90.5396 129.378 92.8823 124.836 95.0872V95.0872Z" fill="#248BDF" fill-opacity="0.99"/>
<path fill-rule="evenodd" clip-rule="evenodd" d="M373.247 68.9039L373.522 97.5679C373.935 122.511 373.66 126.37 371.871 126.232C370.219 126.094 369.806 127.886 369.806 134.087C369.806 138.359 370.219 141.942 370.907 141.942C371.458 141.942 372.421 140.564 373.247 138.772C374.348 136.154 374.486 136.43 374.21 140.702C374.073 143.458 374.348 145.525 375.036 145.249C375.587 144.974 375.999 144.974 375.999 145.387C375.999 145.801 374.761 148.557 373.247 151.588C371.733 154.62 370.77 157.79 371.183 158.479C371.596 159.168 371.32 159.857 370.495 159.857C369.669 159.857 369.118 158.479 369.118 156.687C369.118 154.896 368.705 154.345 368.017 155.309C367.329 156.55 366.228 156.55 359.485 152.967L359.209 159.444C358.934 163.164 358.659 144.836 358.108 71.6601L367.054 71.2467L362.237 70.282C357.971 69.3173 358.246 69.1795 373.247 68.9039V68.9039ZM421.14 69.1795C422.379 68.9039 422.379 69.593 421.415 71.6601C420.59 73.176 419.489 74.4162 418.663 74.4162C417.837 74.4162 417.287 75.6565 417.287 77.1724C417.287 78.6883 416.461 79.9285 415.635 79.9285C414.672 79.9285 414.259 80.342 414.809 80.8932C415.36 81.4444 412.332 88.4726 408.066 96.4654C403.799 104.458 398.57 114.38 392.652 126.094L397.331 136.154C399.946 141.529 401.735 146.352 401.185 146.765C400.772 147.179 401.047 147.454 401.873 147.454C402.836 147.454 403.249 148.005 402.836 148.832C402.423 149.659 402.698 150.21 403.524 150.21C404.35 150.21 404.488 151.313 403.937 152.691C403.249 154.345 403.387 154.758 404.625 153.931C405.726 153.288 406.047 153.656 405.589 155.034C405.176 156.136 405.451 157.101 406.277 157.101C407.102 157.101 407.928 158.203 408.341 159.444C408.754 160.822 408.891 162.613 408.891 163.302C408.891 163.991 409.442 164.956 410.268 165.369C411.093 165.783 411.919 167.988 412.057 170.33C412.332 172.811 412.057 174.465 411.506 174.189C410.818 173.913 410.13 174.327 409.717 175.016C409.304 175.705 408.066 176.118 406.965 175.705C405.864 175.291 404.9 175.843 404.9 176.807C405.038 177.91 404.35 177.91 402.698 176.394C400.496 174.465 400.359 174.602 402.148 179.839L400.084 177.083C398.845 175.567 398.019 173.913 398.019 173.224C398.019 172.673 397.193 172.673 396.368 173.224C395.175 173.959 394.946 173.73 395.68 172.535C396.23 171.708 396.368 169.641 395.955 168.125C395.542 166.61 394.716 165.645 393.891 166.058C393.065 166.472 392.927 165.783 393.478 164.405C394.303 162.475 394.166 162.2 392.514 163.302C390.863 164.405 390.725 164.129 391.551 162.337C392.101 160.959 392.101 159.857 391.551 159.857C390.863 159.857 389.349 157.652 388.11 154.758C386.734 151.864 384.807 147.041 381.504 138.497L378.752 141.253C377.238 142.769 375.862 143.458 375.862 142.631C375.862 141.804 375.862 137.532 375.999 132.984C376.275 126.645 377.376 122.511 380.816 115.759C383.294 110.797 386.872 103.494 388.661 99.4972C390.312 95.5008 392.239 92.1934 392.927 92.3312C393.478 92.3312 393.615 91.78 393.202 90.9531C392.79 90.1263 393.478 88.6104 394.579 87.5079C395.68 86.4055 396.23 85.1652 395.68 84.7518C394.992 84.3384 395.404 84.0628 396.368 84.0628C397.193 84.0628 397.882 83.6493 397.882 83.0981C397.744 82.4091 397.744 81.031 397.882 79.9285C398.019 78.137 398.157 78.137 399.258 79.9285C400.221 81.5822 400.634 81.1688 401.322 78.2748C401.735 76.0699 403.111 74.4162 404.212 74.4162C405.313 74.4162 406.277 73.4516 406.277 72.3491C406.277 70.8332 408.066 70.1442 412.883 69.8686C416.461 69.593 420.177 69.3173 421.14 69.1795V69.1795ZM468.345 68.9039H474.538C480.043 68.9039 480.593 69.1795 480.593 72.3491C480.593 74.8296 479.905 75.7943 477.841 75.7943C476.327 75.7943 474.813 76.3455 474.4 77.1724C473.987 77.9992 472.611 78.4126 471.373 78.137C469.446 77.8614 468.345 79.5151 466.556 84.7518C465.18 88.4726 464.354 90.1263 464.629 88.197C465.042 86.2677 465.868 81.1688 466.831 76.8968L468.345 68.9039ZM539.496 68.9039L557.112 68.7661C568.397 68.7661 577.343 69.4552 581.747 70.8332C586.426 72.2113 590.142 74.4162 593.72 78.4126C597.161 81.9956 599.638 86.6811 601.152 91.9178C602.803 97.5679 603.216 103.08 602.665 110.935C602.253 117.412 601.014 123.889 599.638 126.645C598.262 129.401 595.509 133.26 593.582 135.327C591.518 137.394 589.316 139.186 588.628 139.186C587.802 139.186 588.903 137.256 594.821 130.78L592.068 128.023C590.417 126.508 590.004 125.405 590.967 125.405C592.068 125.405 591.793 124.578 590.279 122.925C588.077 120.582 587.665 120.72 579.545 128.712L582.297 123.2C584.362 119.342 585.187 115.207 585.05 108.73C585.05 103.907 584.362 97.4301 583.398 94.5361C582.297 91.0909 580.37 88.4726 577.893 87.2323C575.829 86.2677 570.049 85.303 556.286 85.303V130.78L560.002 131.055C562.067 131.055 565.369 131.055 570.737 130.917L567.021 132.571C563.856 134.087 563.58 134.638 564.957 136.981C566.058 139.186 566.058 139.599 564.819 138.772C563.718 138.083 563.168 138.497 563.443 139.875C563.58 140.977 564.681 142.493 565.92 143.32C567.434 144.285 567.021 144.56 564.131 144.56C562.067 144.56 559.452 144.974 558.351 145.249C556.699 145.801 556.286 148.143 556.286 154.62C556.286 159.306 555.736 165.231 555.185 167.712C554.222 171.984 553.809 172.26 543.212 172.26L541.698 154.62C540.872 144.974 540.047 121.684 539.772 102.942L539.496 68.9039ZM659.091 69.1795C666.798 69.4552 666.798 69.4552 660.605 69.8686C655.788 70.1442 653.999 70.8332 653.999 72.3491C653.999 73.4516 652.76 75.7943 648.632 80.6176L649.32 76.4833C649.733 74.2784 650.283 71.5223 650.696 70.5576C650.971 69.4552 653.861 69.0417 659.091 69.1795V69.1795ZM829.469 68.9039C839.24 68.9039 839.791 69.0417 839.653 72.0735C839.516 73.7272 839.378 74.0028 839.24 72.6247C839.103 70.6954 838.002 70.282 833.185 70.5576C828.231 70.971 827.405 71.3845 827.405 74.1406C827.405 76.2077 826.579 77.1724 824.79 77.1724C823.276 77.1724 821.074 78.2748 819.698 79.6529C817.358 81.8578 817.358 81.72 818.184 77.1724C818.734 74.554 819.147 71.5223 819.147 70.5576C819.147 69.4552 822.175 68.9039 829.469 68.9039ZM876.949 68.9039H940.256V85.4408H918.236V121.271C918.236 152.14 917.961 157.101 916.172 157.101C914.383 157.101 914.108 160.133 914.108 194.309H902.41L901.446 158.892C900.758 139.324 900.345 114.794 900.345 85.4408H876.949V68.9039ZM959.523 68.9039H1020.77L1021.18 75.7943C1021.45 81.4444 1021.04 82.9603 1018.7 84.0628C1017.19 84.8896 1015.12 85.303 1014.3 85.303C1013.33 85.1652 1009.62 85.1652 999.434 85.4408V172.26H988.424V182.595C988.424 190.864 988.011 192.931 986.36 192.931C984.709 192.931 984.296 190.864 984.296 182.595C984.296 174.327 984.709 172.26 986.36 172.26C988.149 172.26 988.424 168.539 988.424 146.765C988.424 124.992 988.149 121.271 986.36 121.271C984.709 121.271 984.158 118.377 983.332 107.766C982.782 100.462 982.231 93.9849 981.956 93.2959C981.681 92.7446 981.543 90.8153 981.543 88.886C981.543 85.5786 981.268 85.4408 971.91 85.4408C962.826 85.4408 962.276 85.303 962.138 82.2713C962.001 79.3773 962.001 79.3773 960.9 82.6847C960.074 85.303 959.799 83.925 959.661 77.448L959.523 68.9039ZM770.566 105.423C770.842 108.455 770.842 113.14 770.566 115.759C770.291 118.515 770.016 116.034 770.016 110.246C770.016 104.596 770.291 102.529 770.566 105.423ZM459.537 111.624C459.812 111.624 459.812 113.967 459.675 116.861C459.399 120.582 459.812 122.098 461.326 122.235C462.427 122.373 464.354 122.511 465.455 122.511C466.556 122.649 467.932 124.44 468.482 126.508C469.033 128.575 468.62 135.052 467.519 140.977C466.418 146.903 465.455 152.002 465.455 152.278C465.455 152.691 471.097 152.967 477.841 152.967C487.887 152.967 490.227 152.691 490.227 150.899C490.227 149.797 489.264 144.147 488.163 138.221C487.062 132.295 486.098 126.645 486.236 125.405C486.374 124.303 487.199 125.956 488.163 128.85C489.677 133.536 490.089 133.949 490.227 130.917C490.502 129.126 490.502 126.783 490.365 125.818C490.365 124.854 490.915 123.751 491.603 123.338C492.429 123.062 492.842 123.476 492.842 124.44C492.704 125.405 492.704 130.642 492.842 136.154C492.98 144.422 493.392 146.214 495.457 146.903C496.695 147.316 498.072 146.903 498.484 146.076C498.943 145.066 499.998 145.295 501.65 146.765C502.888 147.868 503.989 148.419 503.989 147.868C503.989 147.316 503.026 142.218 501.925 136.43C500.824 130.78 500.136 125.818 500.411 125.405C500.824 125.129 502.063 129.815 503.439 135.741C504.678 141.804 505.778 149.935 505.778 153.656C505.778 157.514 506.191 159.444 506.604 158.065C507.155 156.412 507.98 157.652 509.219 162.2C510.182 165.92 511.283 171.019 511.559 173.638C511.972 176.394 512.522 181.217 512.66 184.387C512.935 189.899 512.797 190.175 509.219 190.175C505.778 190.175 505.366 189.761 505.366 185.351C505.366 181.493 504.815 180.528 502.613 180.528C501.099 180.528 499.723 181.631 499.448 183.009C499.173 184.387 498.484 182.595 497.934 179.15C497.108 174.465 496.558 173.5 495.457 175.016C494.493 176.669 494.356 176.394 494.906 174.051C495.319 172.397 494.906 170.055 494.08 168.814C492.704 167.161 489.264 166.747 477.566 166.747C463.666 166.747 462.702 167.023 462.702 169.503C462.702 171.157 462.152 172.673 461.326 172.949C460.638 173.362 460.225 174.602 460.638 175.705C461.051 176.945 460.638 178.323 459.812 178.874C458.986 179.426 458.711 180.942 459.124 182.32C459.537 183.698 459.399 184.662 458.574 184.662C457.885 184.662 456.922 186.592 456.509 188.797C455.821 192.931 455.684 192.931 448.389 192.655C441.784 192.38 441.095 192.104 442.196 189.899C442.885 188.521 443.16 186.867 442.747 186.04C442.334 185.351 442.472 184.8 443.16 184.8C443.71 184.8 444.261 182.733 444.398 180.252C444.536 177.772 445.912 170.744 447.426 164.68C448.802 158.754 451.417 147.868 452.931 140.564C454.445 133.398 456.509 124.027 457.335 119.617C458.161 115.207 459.124 111.624 459.537 111.624V111.624ZM668.312 119.204C669.826 125.681 669.963 125.956 670.927 122.373C671.477 120.306 672.991 118.239 674.367 117.826C676.432 117.137 676.294 117.412 673.954 119.893C672.441 121.546 671.89 122.787 672.578 122.649C673.404 122.649 674.78 121.546 675.606 120.306C676.569 118.928 677.395 117.137 677.395 116.172C677.395 115.207 676.707 114.932 675.744 115.483C674.551 116.218 674.321 115.988 675.055 114.794C675.744 113.829 676.845 113.278 677.533 113.691C678.221 114.105 678.771 119.066 678.771 124.716C678.771 133.673 679.047 135.189 681.249 135.189C683.313 135.189 683.451 134.363 682.625 128.575C681.937 123.476 681.937 122.787 683.038 125.405C683.863 127.334 686.203 136.292 688.405 145.387C690.469 154.62 693.635 167.574 695.149 174.327C696.662 181.217 698.314 188.245 698.727 189.899C699.277 192.517 698.864 192.931 695.286 192.931C693.084 192.931 691.157 192.517 691.157 191.966C691.157 191.415 689.506 190.037 687.442 188.934C685.377 187.832 682.625 185.903 681.386 184.8C680.285 183.56 678.771 179.288 676.707 167.436L644.365 166.747L643.402 175.154C642.714 179.701 641.888 183.422 641.338 183.422C640.65 183.422 639.824 184.8 639.411 186.454C638.86 188.934 638.31 189.21 637.071 187.832C636.108 186.867 634.869 186.04 634.044 186.04C633.356 186.178 633.631 186.867 634.732 187.556C636.383 188.797 636.108 188.934 633.218 188.659C631.154 188.383 629.502 188.521 629.502 188.797C629.502 189.21 629.502 190.312 629.364 191.277C629.364 192.242 628.263 192.931 627.162 192.931C626.061 192.931 624.685 192.242 624.135 191.277C623.401 190.175 623.63 189.945 624.823 190.588C626.061 191.415 626.474 190.037 626.474 185.765C626.474 182.595 627.988 174.051 629.915 166.747C631.704 159.581 632.943 155.861 632.53 158.479C632.117 161.235 631.429 165.369 630.878 167.85C629.915 172.122 630.053 172.26 634.732 171.984C637.347 171.708 640.237 170.744 641.062 169.503C641.888 168.401 642.301 166.334 642.026 164.68C641.475 162.475 641.613 162.337 642.852 163.991C644.09 165.783 644.365 165.645 644.365 163.302C644.365 161.786 644.778 161.235 645.466 162.062C646.017 162.889 647.668 163.991 649.182 164.542C651.659 165.369 651.659 165.231 649.595 163.716C648.219 162.751 647.256 161.511 647.118 160.959C647.118 160.408 647.806 160.27 648.494 160.546C649.32 160.959 650.146 160.408 650.558 159.168C650.971 158.065 651.935 157.514 652.623 157.79C653.449 158.203 653.999 160.133 653.999 161.924C653.999 165.231 654.412 165.369 660.192 165.094C666.248 164.818 666.385 164.542 666.385 160.27C666.385 157.101 665.697 155.585 664.046 155.309C662.669 155.034 664.183 154.207 667.486 153.518C670.652 152.967 673.266 152.278 673.266 152.278C673.266 152.278 671.753 144.422 669.826 134.776C667.899 125.129 666.385 116.172 666.523 114.794C666.66 113.416 667.349 115.483 668.312 119.204V119.204ZM809.238 125.129C809.376 127.61 809.927 129.401 810.615 128.988C811.165 128.712 811.578 129.264 811.578 130.228C811.578 131.331 811.165 131.882 810.615 131.606C809.927 131.193 809.238 131.606 808.826 132.295C808.413 133.122 809.101 133.673 810.202 133.673C811.303 133.673 812.541 134.225 812.817 134.776C813.092 135.327 811.853 135.603 810.064 135.465C807.725 135.189 806.761 135.878 806.624 137.532C806.486 138.91 806.211 142.08 805.935 144.698C805.66 148.419 805.936 148.97 806.899 147.179C807.587 145.663 809.789 144.698 812.266 144.698C816.257 144.698 816.395 144.56 815.707 139.186C815.156 135.189 815.432 133.811 816.808 134.225C817.771 134.5 819.147 132.433 820.111 128.988C820.936 125.956 821.625 124.578 821.762 126.094C821.762 127.748 820.799 134.363 819.423 141.115C818.184 147.73 817.358 153.518 817.771 153.656C818.184 153.931 823.551 154.069 829.744 153.931C835.937 153.793 841.305 153.38 841.718 152.967C842.13 152.691 841.58 147.316 840.479 141.253C839.378 135.327 838.69 129.953 839.103 129.539C839.378 129.264 840.066 131.469 840.617 134.363C841.03 137.394 842.268 142.493 843.231 145.387C844.883 150.21 845.158 150.624 845.846 147.868C846.397 145.938 847.773 144.698 849.425 144.698C852.039 144.698 852.177 145.663 852.177 157.101C852.177 167.023 852.59 169.779 854.241 170.193C855.342 170.606 856.306 170.33 856.306 169.503C856.306 168.814 857.269 168.677 858.508 169.228C860.434 170.055 860.572 169.641 859.746 166.058C859.196 163.853 858.508 160.822 858.095 159.168C857.682 157.652 857.82 156.963 858.508 157.652C859.196 158.203 860.847 163.164 862.086 168.677C863.325 174.051 864.15 179.288 863.737 180.252C863.462 181.217 863.875 181.906 864.563 181.906C865.389 181.906 866.215 184.249 866.627 187.143C867.04 190.037 866.765 192.931 865.939 193.62C864.976 194.584 864.563 194.309 864.563 192.655C864.563 191.277 863.737 190.175 862.912 190.037C861.948 190.037 859.058 190.037 856.719 190.037C852.452 190.175 852.039 189.761 850.526 183.973C849.562 180.666 848.324 177.772 847.773 177.772C847.085 177.772 846.947 177.221 847.36 176.394C847.773 175.705 847.223 173.224 844.608 166.747L814.468 167.436L812.404 176.394C811.165 181.355 810.064 185.903 809.789 186.454C809.651 187.005 809.514 188.521 809.514 189.899C809.514 191.828 808.137 192.38 803.321 192.655C798.504 192.931 796.99 192.517 796.302 190.588C795.476 188.521 795.201 188.521 794.237 190.175C793.412 191.553 792.999 191.691 792.999 190.588C792.999 189.623 793.687 188.521 794.375 188.107C795.201 187.832 795.751 185.489 795.614 183.009C795.476 180.528 796.99 172.26 798.917 164.68C800.981 157.101 803.871 144.147 805.66 135.741C807.725 125.818 808.963 122.098 809.238 125.129ZM851.489 122.649C851.902 122.649 852.039 125.543 851.902 128.988C851.627 132.709 850.663 135.603 849.425 136.43C847.635 137.394 847.635 137.67 849.837 138.359C851.076 138.91 851.764 140.013 851.351 140.977C850.663 142.218 850.113 142.218 849.287 140.564C848.461 139.278 848.048 139.186 848.048 140.288C848.048 141.253 847.498 141.942 846.672 141.942C845.984 141.942 845.571 140.839 845.984 139.186C846.397 137.67 847.635 135.052 848.736 133.398C849.837 131.744 850.801 128.575 850.801 126.508C850.801 124.44 851.076 122.649 851.489 122.649V122.649ZM572.801 146.076C573.627 146.076 574.177 147.592 574.177 149.246C574.177 150.899 575.141 153.518 576.242 155.034C577.343 156.687 577.893 158.341 577.618 158.892C577.205 159.444 577.343 159.719 578.031 159.306C578.581 159.03 581.059 159.306 583.536 159.995C587.252 161.097 588.077 160.959 588.628 158.892C589.041 157.514 588.903 154.62 588.49 152.278C588.077 150.073 587.527 147.73 587.114 147.179C586.839 146.627 586.976 146.214 587.665 146.214C588.215 146.214 590.555 151.175 592.757 157.376C595.096 163.578 596.748 169.641 596.472 170.882C596.197 171.984 594.683 174.189 590.004 178.048L593.169 176.532C595.371 175.429 596.06 175.567 595.922 176.669C595.647 177.634 592.894 178.323 589.729 178.461C585.875 178.461 583.811 177.91 583.811 176.807C583.811 175.843 582.848 174.602 581.609 174.051C580.37 173.5 579.407 172.397 579.407 171.571C579.407 170.882 579.132 169.641 578.857 168.814C578.581 168.125 576.792 162.889 574.866 157.101C572.939 151.451 571.425 146.627 571.425 146.49C571.425 146.352 572.113 146.076 572.801 146.076V146.076ZM759.556 146.49C761.07 146.627 762.034 147.041 761.758 147.454C761.621 147.868 762.446 148.97 763.823 150.073C765.061 151.037 765.199 151.451 764.098 150.899C762.584 150.073 762.722 150.486 764.511 152.415C765.749 153.931 766.438 155.585 765.887 156.136C765.199 156.687 765.749 158.065 766.85 159.306C768.364 160.822 768.364 161.373 767.263 161.373C766.3 161.373 765.474 161.924 765.474 162.613C765.474 163.44 766.162 163.716 766.85 163.302C767.676 163.027 768.364 164.956 768.364 167.85C768.502 170.744 768.364 173.638 768.227 174.327C768.089 175.154 767.814 176.532 767.676 177.496C767.676 178.461 767.126 179.15 766.575 179.15C765.887 179.15 765.474 180.115 765.474 181.217C765.474 182.457 764.511 183.698 763.41 183.973C762.309 184.387 761.621 185.351 762.034 186.04C762.446 186.867 760.52 188.245 757.905 189.21C755.29 190.175 753.088 191.691 753.088 192.655C753.088 193.62 751.024 194.722 748.684 195.136C746.207 195.549 741.941 195.687 739.326 195.274C736.711 194.998 733.133 194.309 731.481 193.895C729.692 193.344 728.316 192.38 728.316 191.553C728.316 190.864 727.352 190.588 726.251 190.864C725.15 191.277 724.462 191.139 724.875 190.588C725.15 190.037 723.912 188.659 721.985 187.418C720.196 186.316 717.581 183.009 716.48 179.839C715.242 176.807 714.003 171.019 712.902 159.168L720.884 158.892C726.389 158.617 729.279 159.03 729.967 160.27C730.518 161.235 731.068 164.405 731.068 167.436C731.068 170.606 731.894 174.051 732.857 175.154C733.821 176.394 735.885 178.048 737.674 179.012C739.326 179.839 741.803 180.528 743.179 180.528C744.418 180.528 747.583 179.15 750.06 177.496C752.4 175.843 754.189 173.638 753.776 172.673C753.363 171.708 753.776 171.295 754.464 171.571C755.29 171.984 755.978 171.295 756.116 169.917C756.253 168.539 756.391 166.61 756.666 165.369C756.804 164.267 756.941 159.581 756.941 154.896C757.079 147.454 757.354 146.352 759.556 146.49V146.49Z" fill="#5B5C5E" fill-opacity="0.99"/>
<path fill-rule="evenodd" clip-rule="evenodd" d="M484.86 69.3172C487.475 69.3172 488.713 69.5928 487.75 69.8685C486.787 70.1441 486.374 71.3843 487.062 73.3137C487.888 76.3454 488.025 76.3454 489.126 73.7271C489.952 71.7978 490.09 72.2112 489.539 75.3808C488.989 78.6881 489.264 79.6528 490.502 78.826C491.603 78.1369 491.879 78.6881 491.191 80.8931C490.64 82.6846 490.778 84.0626 491.603 84.0626C492.429 84.0626 492.704 85.992 492.154 88.4725C491.741 90.953 491.879 92.3311 492.567 91.3664C493.255 90.4018 494.769 94.8116 496.283 102.391C497.797 109.419 499.035 116.034 499.173 117.136C499.173 118.239 499.723 120.03 500.274 120.857C500.824 121.822 500.824 124.302 500.274 126.37C499.723 128.712 499.861 129.815 500.549 129.264C501.375 128.85 501.925 130.504 501.925 133.398C502.063 136.292 502.613 140.977 503.301 144.009C504.402 149.383 504.402 149.521 501.788 147.041C500.136 145.387 498.898 144.974 498.485 145.938C498.072 146.903 496.696 147.179 495.319 146.765C493.393 146.214 492.98 144.285 492.842 136.016C492.704 130.642 492.704 125.267 492.842 124.302C492.842 123.476 492.292 122.924 491.603 123.338C490.778 123.751 490.365 124.854 490.365 125.681C490.502 126.645 490.365 128.988 490.227 130.917C490.09 133.811 489.814 133.536 488.438 129.126C487.475 126.094 486.236 124.302 485.548 124.992C484.86 125.543 484.86 124.578 485.41 122.649C485.961 120.719 485.961 117.826 485.548 116.034C485.135 114.38 483.759 113.002 482.658 113.002C481.006 113.002 480.869 112.451 481.97 110.246C482.658 108.73 483.346 107.214 483.346 106.801C483.346 106.387 482.658 106.387 481.97 106.801C481.144 107.214 480.318 105.147 479.08 97.1544L476.465 100.186C474.676 102.253 473.988 104.458 474.538 106.387C475.226 109.006 475.089 109.144 473.712 107.49C472.474 105.836 472.336 106.663 472.887 111.211C473.437 114.794 473.162 117.136 472.336 117.136C471.51 117.136 471.235 118.79 471.648 120.857C472.336 123.889 472.061 124.302 470.822 122.649C469.721 120.995 469.584 121.546 470.134 124.992C470.685 127.885 470.409 129.264 469.584 128.85C468.758 128.437 468.207 126.921 468.207 125.405C468.207 123.751 467.244 122.649 465.73 122.511C464.492 122.373 462.565 122.235 461.464 122.098C460.088 121.96 459.4 120.03 459.4 115.483C459.262 112.038 459.675 109.419 460.225 109.695C460.913 109.97 461.739 108.592 462.152 106.387C462.565 104.32 462.427 101.151 461.877 99.2215C461.051 96.4653 461.189 96.0519 462.703 97.1544C464.216 98.2568 464.492 97.8434 463.941 94.8116C463.666 92.7445 463.804 90.953 464.354 90.953C465.042 90.953 465.18 89.2993 464.767 87.0944C464.216 84.4761 464.354 83.9248 465.317 85.4407C466.281 86.9566 466.694 86.2676 467.382 82.2711C468.07 78.1369 468.62 77.3101 470.547 77.9991C471.923 78.4125 473.437 78.1369 473.988 77.3101C474.676 76.4832 476.327 75.7942 477.841 75.7942C479.905 75.7942 480.594 74.9673 480.318 72.6246C480.181 69.7307 480.731 69.3172 484.86 69.3172V69.3172ZM669.413 69.1794C670.789 69.0416 671.615 69.455 671.202 70.2819C670.789 70.9709 671.202 72.7624 671.89 74.0027C672.716 75.3808 674.505 81.4443 675.881 87.5078C677.258 93.5714 678.083 100.462 677.671 102.667C677.12 105.147 677.395 106.387 678.221 105.836C678.909 105.285 680.285 108.317 681.249 112.727C682.35 116.999 683.451 122.098 683.726 124.027C684.276 127.059 684.139 127.196 683.038 124.716C682.074 122.787 681.937 124.027 682.625 128.574C683.451 134.225 683.313 135.051 681.111 135.051C679.047 135.051 678.772 133.673 678.772 124.716C678.772 119.066 678.083 114.105 677.395 113.691C676.707 113.278 675.606 113.829 674.918 114.656C674.276 115.85 674.505 116.08 675.606 115.345C676.707 114.794 677.395 115.069 677.395 116.034C677.395 116.999 676.57 118.928 675.606 120.168C674.643 121.546 673.267 122.649 672.578 122.649C671.89 122.649 672.441 121.409 673.955 119.893C676.294 117.274 676.432 117.136 674.23 118.101C672.854 118.652 671.202 120.719 669.413 126.094L669.275 122.649C669.138 119.893 668.863 119.617 667.762 121.271C666.936 122.649 666.661 121.546 667.211 117.826C667.762 113.553 667.624 112.727 666.385 114.38C665.147 116.034 665.009 115.345 665.835 111.624C666.661 107.628 666.523 107.077 665.009 108.179C663.495 109.281 663.22 108.868 664.046 106.387C664.734 104.32 664.183 102.529 662.257 100.6C660.743 99.0837 659.229 98.2568 658.954 98.8081C658.816 99.4971 657.715 104.872 656.752 110.935C655.513 118.652 654.687 121.271 653.862 119.893C653.036 118.515 652.898 120.03 653.311 124.027C653.724 128.299 653.586 129.126 652.898 126.783C651.935 123.751 651.66 124.165 650.696 130.228C650.146 133.949 650.146 138.359 650.696 139.875C651.522 141.804 651.247 142.355 650.146 141.528C648.907 140.839 648.77 141.942 649.32 145.663C649.871 148.557 650.421 151.313 650.696 151.864C650.972 152.553 654.825 152.966 659.091 153.104C664.872 153.104 666.248 153.518 664.321 154.345C661.981 155.309 661.981 155.585 663.908 155.585C665.697 155.723 666.385 156.825 666.385 160.132C666.385 164.542 666.248 164.68 660.192 164.956C654.412 165.369 653.999 165.094 653.999 161.924C653.999 159.995 653.311 158.203 652.623 157.79C651.935 157.376 650.972 158.065 650.559 159.168C650.146 160.27 649.182 160.959 648.494 160.546C647.806 160.132 647.118 160.27 647.118 160.821C647.256 161.511 648.219 162.751 649.595 163.715C651.66 165.231 651.66 165.231 649.182 164.404C647.669 163.991 646.017 162.889 645.467 162.062C644.778 161.097 644.366 161.648 644.366 163.302C644.366 165.645 644.09 165.783 642.852 163.991C641.613 162.337 641.476 162.475 642.026 164.68C642.301 166.196 641.888 168.401 641.063 169.503C640.237 170.606 637.484 171.708 635.007 171.846C631.429 172.26 630.603 171.708 630.603 169.503C630.603 167.987 630.19 165.645 629.778 164.267C629.089 162.2 629.227 162.2 630.603 163.991C631.842 165.645 632.117 165.094 631.429 161.235C630.741 157.514 631.016 156.963 632.117 158.479C633.218 159.995 633.356 159.443 632.805 155.998C632.392 153.655 632.392 151.864 632.943 152.14C633.631 152.415 634.181 149.521 634.181 145.663C634.319 141.666 635.145 138.359 635.971 138.083C636.934 137.945 637.072 136.567 636.521 134.638C635.695 132.157 635.971 131.882 637.484 132.984C638.998 134.087 639.274 133.673 638.448 130.504C637.897 128.161 638.035 127.059 638.861 127.472C639.686 127.885 639.962 126.232 639.411 122.924C638.861 118.928 638.998 118.239 640.237 119.893C641.476 121.546 641.613 121.271 641.063 118.101C640.65 116.034 640.65 114.656 641.2 114.932C641.888 115.207 642.439 112.589 642.439 109.144C642.577 105.561 643.265 102.529 644.228 102.253C645.191 102.115 645.467 100.462 644.916 98.119C644.366 95.3629 644.503 94.9494 645.467 96.4653C646.568 97.9812 646.843 96.4653 646.705 91.2286C646.522 86.3594 647.026 83.6033 648.219 82.9602C649.32 82.409 650.008 81.3065 650.008 80.6175C649.871 79.7906 650.834 78.1369 651.935 76.7588C653.036 75.5186 653.999 73.4515 653.999 72.349C653.999 70.8331 655.788 70.1441 660.468 69.8685C664.183 69.5928 668.174 69.3172 669.413 69.1794V69.1794ZM754.052 84.7517C754.327 93.847 754.327 109.006 754.052 118.515C753.914 128.023 753.639 120.582 753.639 101.978C753.639 83.3736 753.914 75.6564 754.052 84.7517ZM757.217 70.2819C758.134 71.66 758.593 71.7518 758.593 70.5575C758.593 69.455 760.933 68.9038 772.356 68.9038L771.805 168.814L770.154 99.9105L769.741 136.43C769.328 156.549 768.915 170.606 768.64 167.712C768.364 164.956 767.676 162.889 766.851 163.302C766.162 163.715 765.474 163.302 765.474 162.613C765.474 161.924 766.3 161.235 767.126 161.235C768.364 161.373 768.364 160.684 766.851 159.168C765.75 158.065 765.199 156.549 765.887 155.998C766.438 155.447 765.75 153.793 764.511 152.415C762.722 150.486 762.584 150.072 764.098 150.762C765.199 151.313 765.061 151.037 763.823 149.935C762.447 148.97 761.621 147.868 761.896 147.454C762.309 147.041 761.346 146.627 759.832 146.352C757.492 146.076 757.217 147.179 756.804 154.62C756.529 159.443 756.254 141.942 756.116 115.758C755.978 84.6139 756.391 68.9038 757.217 70.2819V70.2819ZM832.91 70.5575C837.314 70.2819 838.415 70.6953 838.552 72.6246C838.69 74.6917 838.828 74.5539 839.516 72.349C839.929 70.8331 842.406 79.515 845.434 92.3311C848.324 104.872 850.25 116.585 849.975 118.515C849.287 121.271 849.562 121.546 850.663 119.893C851.902 118.377 852.04 119.341 851.351 124.027C850.801 127.472 849.562 131.744 848.324 133.673C847.223 135.603 846.122 138.221 845.847 139.461C845.571 140.839 845.984 141.942 846.672 141.942C847.36 141.942 848.049 141.115 848.049 140.15C848.049 139.048 848.461 139.186 849.287 140.564C850.113 142.08 850.663 142.217 851.351 140.839C851.764 140.013 851.076 138.772 849.7 138.359C847.636 137.532 847.636 137.256 849.425 136.292C850.526 135.603 851.489 134.362 851.627 133.398C851.764 132.433 851.902 130.366 852.04 128.85C852.315 127.334 853.553 130.366 855.067 135.74C856.444 141.115 857.269 146.214 856.994 147.041C856.581 148.005 856.994 148.832 857.682 148.832C858.37 148.832 858.783 150.348 858.37 152.277C857.957 154.207 858.37 155.723 859.058 155.723C859.747 155.723 860.435 156.412 860.435 157.101C860.435 157.79 859.746 158.065 858.783 157.376C857.682 156.687 857.407 157.238 857.957 159.168C858.37 160.684 859.196 163.853 859.747 166.058C860.572 169.503 860.435 170.055 858.508 169.09C857.269 168.539 856.306 168.677 856.306 169.503C856.306 170.192 855.343 170.606 854.242 170.192C852.59 169.641 852.177 166.885 852.177 157.101C852.177 145.663 852.04 144.698 849.425 144.698C847.773 144.698 846.397 145.938 845.847 147.73C845.158 150.624 845.021 150.486 843.369 146.076C842.131 142.631 841.305 141.804 840.754 143.32C840.204 144.422 840.204 143.871 840.617 141.942C841.03 140.013 841.03 136.43 840.617 133.949C840.204 131.606 839.103 129.815 838.415 130.228C837.589 130.642 837.314 128.988 837.864 125.681C838.415 121.822 838.277 121.133 837.176 122.649C836.075 124.165 835.938 123.476 836.626 119.893C837.314 116.31 837.176 115.345 835.938 116.034C834.974 116.723 834.424 116.447 834.561 115.345C834.699 114.518 833.736 109.97 829.745 97.1544L827.68 101.978C826.442 104.596 825.616 107.903 825.753 109.144C825.891 110.797 825.478 111.211 824.377 110.522C823.139 109.833 823.001 110.935 823.689 114.656C824.24 117.826 824.102 119.893 823.276 119.893C822.451 119.893 822.313 121.546 822.726 123.613C823.276 126.507 823.139 126.921 822.175 125.405C821.074 123.751 820.524 124.716 819.973 129.126C819.285 133.536 818.597 134.914 817.083 134.362C815.432 133.811 815.156 134.776 815.707 139.186C816.395 144.56 816.257 144.698 812.266 144.698C809.789 144.698 807.587 145.663 806.899 147.041C805.936 148.97 805.66 148.281 805.936 144.698C806.211 142.08 806.486 138.772 806.624 137.394C806.761 135.74 807.725 135.189 810.064 135.327C811.854 135.603 813.092 135.327 812.817 134.638C812.542 134.087 811.303 133.673 810.202 133.673C809.101 133.673 808.413 132.984 808.826 132.295C809.239 131.468 809.927 131.193 810.477 131.468C811.165 131.744 811.578 131.193 811.578 130.228C811.578 129.264 811.165 128.712 810.477 128.988C809.927 129.264 809.239 127.196 809.101 124.302C808.826 121.546 809.101 119.066 809.789 118.79C810.34 118.652 810.615 116.999 810.202 115.069C809.789 113.14 810.202 111.624 810.89 111.624C811.578 111.624 811.991 110.384 811.578 108.868C811.165 107.352 811.578 105.836 812.266 105.423C812.954 105.009 813.367 103.769 812.954 102.667C812.542 101.564 812.954 100.6 813.643 100.6C814.331 100.6 814.744 99.0837 814.331 97.1544C813.918 95.2251 814.331 93.7092 815.019 93.7092C815.707 93.7092 816.12 93.0201 815.707 92.3311C815.294 91.5043 815.432 88.4725 815.982 85.4407C816.67 82.5468 817.221 80.3418 817.358 80.6175C817.634 81.0309 818.735 80.3418 819.973 79.2394C821.074 78.1369 823.276 77.1723 824.79 77.1723C826.579 77.1723 827.405 76.2076 827.405 74.0027C827.405 71.3843 828.231 70.9709 832.91 70.5575V70.5575ZM982.507 117.826C982.782 130.779 982.782 151.175 982.507 163.302C982.369 175.429 982.094 164.818 982.094 139.875C982.094 114.932 982.369 104.872 982.507 117.826ZM370.632 120.168C371.32 121.546 371.596 123.2 371.183 124.027C370.77 124.854 371.458 125.681 372.559 126.094C373.66 126.507 374.348 126.232 373.935 125.405C373.522 124.578 373.798 124.027 374.623 124.027C375.449 124.027 375.862 127.885 375.862 133.26C375.724 139.599 376.137 142.493 377.238 142.217C378.064 142.08 378.752 142.217 378.752 142.631C378.752 143.044 377.651 143.871 376.413 144.56C374.211 145.663 373.935 145.111 374.211 140.702C374.486 136.43 374.348 136.154 373.247 138.772C372.421 140.564 371.458 141.942 370.908 141.942C370.219 141.942 369.669 136.567 369.531 129.953C369.394 121.684 369.669 118.652 370.632 120.168ZM359.072 123.338C359.347 125.543 359.347 129.953 359.072 132.984C358.797 136.016 358.521 134.225 358.521 128.85C358.521 123.476 358.797 121.133 359.072 123.338ZM587.94 121.271C588.353 121.133 589.591 122.098 590.692 123.338C592.206 124.854 592.206 125.543 590.968 125.405C590.004 125.405 590.417 126.507 594.821 130.917L591.656 134.5C590.004 136.43 588.49 139.048 588.215 140.288C588.078 141.666 587.94 144.147 587.802 146.076C587.802 148.005 588.078 151.037 588.49 152.966C588.903 154.896 589.041 157.514 588.628 158.754C588.078 160.821 587.252 160.959 583.398 159.995C581.059 159.306 578.444 159.168 577.893 159.581C577.205 160.132 576.792 159.857 577.068 159.168C577.205 158.479 576.93 156.687 576.517 155.309C575.967 154.069 575.141 153.242 574.453 153.518C573.902 153.793 573.765 152.14 574.178 149.797C574.728 146.076 574.59 145.663 572.113 146.489C570.599 146.903 566.884 146.765 558.351 144.974L563.168 144.836C566.746 144.698 567.434 144.285 565.92 143.32C564.819 142.631 563.718 141.115 563.443 139.875C563.305 138.634 563.718 138.221 564.819 138.772C566.195 139.599 566.195 139.186 564.957 137.119C563.718 134.638 564.131 134.087 568.535 131.882C571.288 130.642 574.315 129.815 575.141 130.228C576.104 130.642 576.655 130.504 576.38 129.815C576.104 129.264 577.481 127.61 579.545 126.094C583.123 123.476 583.123 123.476 581.196 126.094C580.095 127.61 580.921 127.196 583.123 124.992C585.325 122.924 587.527 121.271 587.94 121.271V121.271ZM986.36 121.271C988.149 121.271 988.425 124.991 988.425 146.765C988.425 168.539 988.149 172.26 986.36 172.26C984.571 172.26 984.296 168.539 984.296 146.765C984.296 124.991 984.571 121.271 986.36 121.271ZM754.052 141.253C754.327 144.285 754.327 148.97 754.052 151.588C753.776 154.207 753.501 151.726 753.501 146.076C753.501 140.426 753.776 138.221 754.052 141.253ZM839.378 151.864C839.516 151.726 839.378 152.14 839.103 152.966C838.69 153.655 834.286 154.207 819.836 153.793L829.469 152.966C834.837 152.415 839.241 152.002 839.378 151.864ZM800.706 157.101C801.532 158.892 801.669 158.892 802.908 157.101C803.871 155.447 804.009 155.723 803.321 157.79C802.908 159.306 802.633 163.164 802.633 166.334C802.633 170.744 802.082 172.26 800.568 172.26C798.779 172.26 798.779 171.433 800.018 167.023C800.844 164.267 801.119 160.408 800.706 158.479C800.293 156.549 800.293 155.998 800.706 157.101Z" fill="#595A5C" fill-opacity="0.99"/>
<path d="M356.732 194.309L356.457 131.882L356.044 69.4551L361.549 70.1442C366.916 70.8332 366.916 70.971 358.108 71.66L358.384 118.928C358.521 144.836 358.796 163.164 359.485 152.967L363.2 155.034C366.228 156.55 367.329 156.55 368.017 155.309C368.705 154.345 369.118 154.896 369.118 156.825C369.118 158.479 369.669 159.857 370.494 159.857C371.32 159.857 371.595 159.168 371.183 158.479C370.77 157.79 371.045 155.723 371.733 154.069C372.696 151.864 373.109 157.79 373.247 194.309H356.732Z" fill="#5C5E60" fill-opacity="0.99"/>
<path d="M399.533 79.5151C399.395 78.137 400.359 75.243 401.46 73.0381C403.524 69.1795 404.075 68.9039 411.506 69.1795C419.213 69.4551 419.213 69.4551 412.882 69.8685C408.203 70.1442 406.414 70.8332 406.414 72.3491C406.414 73.4515 405.451 74.4162 404.35 74.4162C403.111 74.4162 401.735 76.0699 401.047 78.2748C400.129 80.7553 399.625 81.1688 399.533 79.5151Z" fill="#5C5E60" fill-opacity="0.99"/>
<path d="M754.189 164.956C754.327 159.443 754.602 135.465 754.739 111.624L755.152 68.2148L755.565 119.617C755.84 147.73 755.428 171.708 754.877 172.811C754.327 173.913 754.051 170.33 754.189 164.956Z" fill="#5C5E60" fill-opacity="0.99"/>
<path d="M982.369 194.309L983.057 151.313L983.745 108.179L984.02 150.624C984.296 187.143 984.708 192.931 986.498 192.931C988.149 192.931 988.562 190.864 988.562 172.26H999.572V194.309H982.369Z" fill="#5C5E60" fill-opacity="0.99"/>
<path d="M767.263 178.737C768.639 178.461 769.19 170.744 769.74 148.832L770.429 119.341L770.704 147.179C771.117 172.26 770.841 175.567 768.502 180.252C766.988 183.146 764.373 187.005 762.584 189.072C760.795 191.001 758.042 193.069 756.253 193.482C754.327 194.033 753.226 193.758 753.226 192.655C753.226 191.69 755.29 190.175 758.042 189.21C760.657 188.245 762.584 186.867 762.171 186.178C761.758 185.351 762.446 184.387 763.547 184.111C764.648 183.698 765.612 182.457 765.612 181.355C765.612 180.115 766.3 179.012 767.263 178.737Z" fill="#5C5E60" fill-opacity="0.99"/>
<path d="M539.909 194.309L540.047 167.85L540.322 141.253L542.662 172.26H548.855C554.222 172.26 555.048 171.846 555.46 169.228C555.736 167.436 556.149 172.397 556.424 194.309H539.909Z" fill="#5C5E60" fill-opacity="0.99"/>
<path d="M901.446 182.733C901.171 189.486 900.896 184.249 900.896 171.019C900.896 157.79 901.171 152.14 901.446 158.617C901.721 165.094 901.721 175.843 901.446 182.733Z" fill="#5C5E60" fill-opacity="0.99"/>
<path d="M916.172 194.447C914.52 194.447 914.108 191.415 914.108 175.843C914.108 160.133 914.52 157.239 916.172 157.239C917.961 157.239 918.236 160.133 918.236 175.843C918.236 191.415 917.961 194.447 916.172 194.447Z" fill="#5C5E60" fill-opacity="0.99"/>
<path d="M399.533 181.355C396.643 174.465 393.89 167.436 393.478 165.507C392.927 163.578 394.441 165.92 396.643 170.606C398.982 175.429 401.184 179.288 401.46 179.288C401.873 179.288 401.735 178.185 401.184 176.807C400.359 174.74 400.496 174.602 402.698 176.532C404.35 178.047 405.038 178.048 405.038 176.807C405.038 175.843 405.864 175.429 406.965 175.843C408.203 176.256 409.442 175.843 409.717 175.154C410.13 174.327 411.093 174.051 411.781 174.465C412.607 174.878 412.882 174.051 412.332 172.673C411.781 170.744 412.057 170.744 413.846 173.086C414.947 174.602 417.011 178.874 418.25 182.733C419.488 186.454 421.002 190.175 421.69 191.001C422.379 191.69 422.929 192.793 422.791 193.344C422.791 193.895 418.8 194.309 404.625 193.758L399.533 181.355Z" fill="#5C5E60" fill-opacity="0.99"/>
<path d="M497.108 185.076C496.282 179.977 495.319 174.327 495.044 172.397C494.631 170.468 494.769 169.917 495.319 171.019C495.869 172.122 496.97 175.843 497.934 179.288C498.897 182.733 499.723 184.387 499.723 183.009C499.861 181.631 500.962 180.666 502.613 180.666C504.815 180.666 505.366 181.493 505.366 185.489C505.366 189.899 505.778 190.312 509.494 190.312C513.485 190.312 513.623 190.037 512.935 185.076C512.247 179.977 512.247 180.115 514.311 186.178C515.412 189.623 516.375 192.793 516.375 193.344C516.375 193.895 512.384 194.447 498.484 194.447L497.108 185.076Z" fill="#5C5E60" fill-opacity="0.99"/>
<path d="M593.169 175.567C594.958 174.189 596.335 172.122 596.335 171.019C596.472 169.917 598.537 174.189 601.152 180.666C603.629 187.143 605.831 192.793 605.831 193.344C605.831 193.895 601.702 194.309 587.527 193.758L584.361 184.249C582.572 179.012 581.334 174.327 581.884 173.913C582.297 173.362 582.985 174.327 583.26 175.843C583.811 178.047 585.05 178.599 589.729 178.461C593.032 178.461 595.647 177.634 595.922 176.669C596.197 175.567 595.371 175.567 590.004 177.91L593.169 175.567Z" fill="#5C5E60" fill-opacity="0.99"/>
<path d="M849.837 189.348C848.874 186.454 848.186 182.595 848.186 180.666C848.323 178.323 848.874 179.288 850.25 183.698C852.039 189.899 852.452 190.312 856.718 190.175C859.196 190.037 861.948 190.037 862.912 190.175C863.875 190.175 864.563 191.277 864.563 192.379C864.563 193.895 862.912 194.447 858.095 194.447C851.764 194.447 851.489 194.309 849.837 189.348Z" fill="#5C5E60" fill-opacity="0.99"/>
<path d="M637.071 187.832C638.31 189.21 638.86 188.934 639.686 186.178C640.237 184.249 640.925 183.422 641.2 184.387C641.475 185.351 641.062 187.418 640.237 188.934C639.548 190.45 639.273 192.242 639.548 193.069C639.961 193.895 637.071 194.447 623.722 194.447L624.685 189.899C625.098 187.418 625.786 185.213 626.199 184.8C626.612 184.387 626.612 186.04 626.337 188.521C626.061 191.415 626.474 193.069 627.575 193.069C628.539 193.069 629.364 192.242 629.364 191.277L629.365 191.276C629.502 190.311 629.64 189.348 629.64 188.934C629.502 188.521 631.153 188.383 633.218 188.659C636.108 189.072 636.383 188.796 634.732 187.694C633.631 186.867 633.355 186.178 634.044 186.178C634.869 186.178 636.246 186.867 637.071 187.832Z" fill="#5C5E60" fill-opacity="0.99"/>
<path d="M681.524 193.344C681.524 192.793 681.248 190.175 680.836 187.556C680.147 183.698 680.285 183.284 681.524 185.076C682.349 186.454 683.726 187.556 684.689 187.556C685.652 187.556 687.579 188.659 689.093 190.037C690.607 191.553 693.772 192.931 695.974 193.344C698.314 193.758 695.974 194.171 690.882 194.171C685.79 194.309 681.524 193.895 681.524 193.344Z" fill="#5C5E60" fill-opacity="0.99"/>
<path d="M456.638 188.569L456.647 188.521C457.06 186.04 457.61 184.524 457.885 185.076C458.161 185.489 458.161 187.832 457.885 190.175C457.197 194.447 457.197 194.447 448.802 194.447C444.123 194.447 440.545 194.033 440.958 193.482C441.371 192.931 444.811 192.655 448.802 192.793C455.796 193.068 455.821 192.932 456.638 188.569Z" fill="#5C5E60" fill-opacity="0.99"/>
<path d="M800.43 194.447C792.035 194.447 791.76 194.309 793.274 191.69C794.65 189.486 795.063 189.348 796.027 191.001C796.761 192.379 798.962 192.931 802.632 192.655C805.523 192.517 808.275 192.793 808.55 193.344C808.825 193.895 805.11 194.447 800.43 194.447Z" fill="#5C5E60" fill-opacity="0.99"/>
<path fill-rule="evenodd" clip-rule="evenodd" d="M356.044 68.0769L374.623 67.5256L373.935 117.825L373.247 68.9037L356.044 68.0769ZM401.46 68.0769L412.882 67.8012C419.076 67.6634 424.168 67.8012 424.168 68.2147C424.168 68.6281 422.929 71.3842 421.415 74.416C419.901 77.4478 418.387 79.9283 417.975 79.9283C417.562 79.9283 418.525 77.4478 422.791 68.9037L401.46 68.0769ZM538.395 67.5256L572.113 68.0769L539.771 68.9037V194.309H556.286L557.112 148.143L557.662 195.687H538.395V67.5256ZM661.293 67.8012C670.101 68.0769 672.578 68.6281 672.716 70.2818C672.716 71.3842 672.578 71.5221 672.303 70.6952C672.028 69.4549 668.449 68.9037 660.88 68.9037C650.421 68.9037 649.87 69.0415 649.733 72.0733C649.733 74.0026 649.457 74.416 648.907 73.0379C648.494 71.9355 648.632 70.144 649.045 69.1793C649.733 67.9391 653.036 67.5256 661.293 67.8012ZM875.573 67.5256L943.697 68.2147L876.949 68.9037V85.4406H900.345V194.309H918.236V85.4406H941.632L942.458 69.5927L943.008 86.8187H919.612V195.687H898.969V86.8187H875.573V67.5256ZM958.147 67.5256L1023.52 68.2147L959.523 68.9037V85.4406H981.543V194.309H999.434V85.4406L1023.52 85.9919L1000.81 86.8187V195.687H980.167V86.8187H958.147V67.5256ZM556.286 85.4406L559.314 85.5784C561.516 85.7162 561.791 85.9919 560.14 86.2675C557.938 86.8187 557.662 89.0236 557.662 129.539L570.049 130.228H556.974L556.286 85.4406ZM604.179 101.288C604.454 103.631 604.454 107.903 604.179 110.935C603.904 113.967 603.629 112.175 603.629 106.801C603.629 101.564 603.766 99.0836 604.179 101.288ZM373.935 154.344C374.348 154.344 374.623 163.715 374.623 195.687L356.044 195.135L373.247 194.309V174.327C373.247 163.302 373.66 154.344 373.935 154.344ZM681.111 191.966C681.524 193.895 683.175 194.309 690.469 194.309C697.901 194.309 699.552 193.895 699.965 191.966C700.378 190.174 700.653 190.45 700.653 192.655C700.791 195.549 700.378 195.687 690.469 195.687C680.698 195.687 680.285 195.549 680.423 192.655C680.423 190.45 680.698 190.174 681.111 191.966ZM586.151 192.517C586.839 193.482 591.931 194.446 609.271 195.273L597.711 195.135C588.628 194.998 586.013 194.584 585.6 192.931C585.233 191.552 585.417 191.415 586.151 192.517ZM414.534 194.86C421.002 194.86 423.479 194.998 420.039 195.273C416.736 195.687 411.369 195.687 408.341 195.273C405.313 194.998 408.203 194.86 414.534 194.86ZM506.054 194.722C511.421 194.722 513.21 194.998 510.182 195.273C507.155 195.687 502.888 195.687 500.549 195.273C498.347 194.998 500.824 194.722 506.054 194.722V194.722ZM859.058 194.722C864.838 194.722 866.903 194.998 863.875 195.273C860.847 195.687 856.306 195.687 853.553 195.273C850.938 194.998 853.416 194.722 859.058 194.722Z" fill="#1B1C1C" fill-opacity="0.98"/>
<path d="M489.126 70.6952C488.576 69.8684 484.172 68.9037 479.217 68.6281L470.272 68.0769L480.181 67.8012C488.989 67.5256 490.227 67.8012 490.227 69.8684C490.227 71.522 489.86 71.7977 489.126 70.6952Z" fill="#282828" fill-opacity="0.97"/>
<path d="M767.539 68.6281C764.511 68.9037 760.107 68.9037 757.905 68.4903C755.703 68.2147 758.043 68.0769 763.41 68.0769C768.777 68.0769 770.566 68.2147 767.539 68.6281Z" fill="#282828" fill-opacity="0.97"/>
<path d="M457.473 113.967C457.198 113.829 458.299 107.49 459.95 99.9104C461.602 92.331 463.115 86.5431 463.391 86.9565C463.666 87.3699 462.427 93.7091 460.913 101.013C459.262 108.317 457.748 114.105 457.473 113.967Z" fill="#282828" fill-opacity="0.97"/>
<path d="M639.411 118.514C639.136 118.239 639.962 113.14 641.2 107.214C642.576 101.426 643.815 96.8786 643.953 97.1543C644.09 97.4299 643.265 102.529 642.164 108.454C640.925 114.38 639.824 118.928 639.411 118.514Z" fill="#282828" fill-opacity="0.97"/>
<path d="M804.284 136.016C804.147 135.878 804.972 130.642 806.349 124.44C807.725 118.239 808.963 113.416 809.101 113.691C809.239 113.967 808.275 119.203 807.037 125.267C805.798 131.331 804.559 136.292 804.284 136.016Z" fill="#282828" fill-opacity="0.97"/>
<path d="M635.007 137.394C634.87 137.256 635.42 133.26 636.383 128.574C637.347 123.889 638.31 120.306 638.448 120.719C638.585 120.995 638.035 124.991 637.072 129.539C636.246 134.087 635.282 137.67 635.007 137.394Z" fill="#282828" fill-opacity="0.97"/>
<path d="M854.104 131.606C853.141 127.885 852.315 123.476 852.315 121.96C852.315 120.444 853.278 122.649 854.242 126.783C855.343 131.055 856.168 135.327 856.168 136.429C856.031 137.67 855.205 135.465 854.104 131.606Z" fill="#282828" fill-opacity="0.97"/>
<path d="M587.252 141.666L592.069 137.808C594.684 135.603 597.161 133.811 597.574 133.811C597.986 133.811 596.06 135.603 588.628 142.08L590.968 148.143C592.344 151.588 593.032 154.207 592.344 153.793C591.793 153.518 590.417 150.761 587.252 141.666Z" fill="#282828" fill-opacity="0.97"/>
<path d="M481.557 152.002C486.924 151.726 488.851 151.037 488.851 149.521C488.851 148.419 489.126 147.454 489.539 147.454C489.952 147.454 490.227 148.694 490.227 150.21C490.227 152.691 489.401 152.966 474.401 152.553L481.557 152.002Z" fill="#282828" fill-opacity="0.97"/>
<path d="M664.321 152.691C661.293 152.966 656.889 152.966 654.687 152.553C652.485 152.277 654.825 152.139 660.192 152.139C665.56 152.139 667.349 152.277 664.321 152.691Z" fill="#282828" fill-opacity="0.97"/>
<path d="M731.068 163.302C731.068 157.927 730.656 157.101 728.041 156.687C725.426 156.274 725.564 156.136 728.729 155.998C732.578 155.723 732.582 155.86 732.857 164.788L732.858 164.818C733.133 172.535 733.546 174.189 736.573 176.531C739.739 179.15 739.739 179.288 736.986 177.91C735.197 177.083 733.133 174.878 732.445 172.948C731.757 171.157 731.068 166.747 731.068 163.302Z" fill="#282828" fill-opacity="0.97"/>
<path d="M668.45 167.85C664.734 168.125 657.853 168.125 653.311 167.85C648.77 167.574 651.935 167.298 660.192 167.298C668.45 167.298 672.166 167.574 668.45 167.85Z" fill="#282828" fill-opacity="0.97"/>
<path d="M159.242 282.092C156.214 282.368 151.535 282.368 148.92 282.092C146.305 281.817 148.783 281.541 154.425 281.541C160.068 281.541 162.27 281.817 159.242 282.092Z" fill="#256AAC" fill-opacity="0.99"/>
<path d="M356.319 131.606C356.044 134.638 355.906 131.469 355.906 124.716C355.906 117.963 356.044 115.345 356.319 119.204C356.594 122.925 356.594 128.575 356.319 131.606Z" fill="#414043" fill-opacity="0.98"/>
<path d="M537.982 164.68C537.845 182.044 537.707 167.299 537.707 131.606C537.707 95.9142 537.845 81.72 537.982 99.9106C538.258 118.101 538.258 147.316 537.982 164.68Z" fill="#5A5B5C" fill-opacity="0.34"/>
<path d="M957.734 82.6846C957.459 85.303 957.184 82.8224 957.184 77.1723C957.184 71.5222 957.459 69.3173 957.734 72.3491C958.009 75.3808 958.009 80.0663 957.734 82.6846Z" fill="#5A5B5C" fill-opacity="0.34"/>
<path d="M558.626 110.246C558.351 115.207 558.213 111.762 558.213 102.667C558.213 93.5714 558.351 89.575 558.626 93.7092C558.901 97.8435 558.901 105.285 558.626 110.246Z" fill="#5A5B5C" fill-opacity="0.34"/>
<path d="M558.626 181.217C558.488 187.281 558.213 182.595 558.213 170.882C558.213 159.168 558.488 154.207 558.626 159.857C558.901 165.507 558.901 175.154 558.626 181.217Z" fill="#5A5B5C" fill-opacity="0.34"/>
<path d="M1001.77 169.503C1001.64 184.249 1001.5 172.535 1001.5 143.32C1001.5 114.105 1001.64 102.115 1001.77 116.447C1002.05 130.779 1002.05 154.758 1001.77 169.503Z" fill="#5B5C5D" fill-opacity="0.17"/>
<path d="M773.319 97.8435C773.181 103.494 772.906 99.4972 772.906 88.886C772.906 78.2748 773.044 73.5893 773.319 78.5504C773.594 83.5115 773.594 92.1934 773.319 97.8435Z" fill="#535353" fill-opacity="0.58"/>
<path d="M752.675 85.4407C752.4 88.8859 752.125 86.4054 752.125 79.9284C752.125 73.4514 752.4 70.6953 752.675 73.7271C752.951 76.7588 752.951 81.9955 752.675 85.4407Z" fill="#323130" fill-opacity="0.61"/>
<path d="M1023.79 81.9955C1023.52 85.0273 1023.24 83.2358 1023.24 77.8613C1023.24 72.4868 1023.52 70.1441 1023.79 72.349C1024.07 74.5539 1024.07 78.9637 1023.79 81.9955Z" fill="#323130" fill-opacity="0.61"/>
<path d="M752.675 142.631C752.538 151.037 752.263 144.422 752.263 128.161C752.263 111.9 752.538 105.009 752.675 113.002C752.951 120.995 752.951 134.225 752.675 142.631Z" fill="#323130" fill-opacity="0.61"/>
<path d="M354.943 85.4408C354.668 88.8859 354.393 86.681 354.393 80.6175C354.393 74.554 354.668 71.7978 354.943 74.4161C355.218 77.0345 355.218 81.9956 354.943 85.4408Z" fill="#383637" fill-opacity="0.79"/>
<path d="M354.943 108.868C354.668 111.486 354.393 109.006 354.393 103.356C354.393 97.7056 354.668 95.5007 354.943 98.5325C355.218 101.564 355.218 106.25 354.943 108.868Z" fill="#383637" fill-opacity="0.79"/>
<path d="M354.943 170.192C354.805 175.567 354.53 170.881 354.53 159.857C354.53 148.832 354.805 144.56 354.943 150.21C355.218 155.86 355.218 164.818 354.943 170.192Z" fill="#383637" fill-opacity="0.79"/>
<path d="M935.852 77.448C935.715 74.554 936.127 71.6601 936.816 71.2466C937.504 70.6954 938.054 70.282 938.192 70.282C938.192 70.282 938.467 73.0381 938.605 76.4833C938.742 79.9285 938.192 82.6847 937.504 82.6847C936.816 82.6847 935.99 80.3419 935.852 77.448Z" fill="#595A5C" fill-opacity="0.99"/>
<path d="M830.02 160.959C828.781 159.995 828.093 158.341 828.506 157.376C828.919 156.136 830.433 155.861 833.46 156.55C835.8 157.101 839.791 157.652 842.131 157.652C844.608 157.79 846.672 158.203 846.672 158.892C846.672 159.444 845.433 159.857 843.92 159.857C842.406 159.857 840.479 160.133 839.791 160.546C839.103 160.959 837.727 161.235 837.038 161.235C836.35 161.235 835.937 161.924 836.35 162.613C836.763 163.302 835.525 163.991 833.598 163.991C831.671 163.991 829.744 163.164 829.194 162.337C828.368 161.097 828.643 160.959 830.157 161.648C831.671 162.613 831.671 162.337 830.02 160.959Z" fill="#595A5C" fill-opacity="0.99"/>
<path d="M202.319 199.545C206.31 195.136 209.475 190.726 209.475 189.899C209.475 188.934 209.75 188.521 210.163 189.21C210.576 189.761 209.613 191.828 208.236 194.033C206.723 196.1 203.282 199.959 200.392 202.577C196.951 205.747 197.639 204.644 202.319 199.545Z" fill="#256AAC" fill-opacity="0.99"/>
<path d="M137.223 129.126C140.25 126.921 145.205 124.716 148.233 124.165C151.26 123.613 155.664 123.338 157.866 123.751C160.068 124.027 164.747 125.681 168.05 127.334C171.491 128.85 176.033 132.433 178.097 135.052C180.299 137.808 182.638 143.182 183.464 147.454C184.428 151.588 184.703 157.239 184.29 159.857C183.739 162.475 181.4 167.712 178.923 171.295C175.757 175.98 172.317 179.012 167.5 181.355C163.784 183.146 158.417 184.662 155.802 184.662C153.187 184.662 148.645 183.973 145.755 183.284C143.003 182.457 138.048 179.563 134.883 176.669C131.855 173.913 128.14 169.09 126.763 166.058C125.387 163.026 124.148 157.79 124.148 154.345C124.148 150.21 125.387 145.525 127.864 140.564C130.341 135.878 133.782 131.469 137.223 129.126Z" fill="#248BDF" fill-opacity="0.99"/>
</svg>
